<svg width="846" height="764" viewBox="0 0 846 764" fill="none" xmlns="http://www.w3.org/2000/svg">
<path opacity="0.1" d="M819.6 556.1C808.3 543 794.5 532 779.8 522.9C763.5 512.8 742.7 507.4 728.4 494.6C712 479.9 712.6 454.1 718.4 434.5C724.3 414.7 736.3 397.1 749.1 381.1C772.9 351.5 802 325.5 816.7 289.7C829.8 257.8 825.2 223.5 802.2 197.5C778.4 170.5 743 158.7 707.7 158.2C663.6 157.5 623.6 174.8 580.6 181.5C557.5 185.1 534.6 183.2 514 171.4C496.5 161.4 482.2 146.7 468.7 131.9C442.8 103.5 417.2 75.2997 386.6 51.9997C330.9 9.49973 257.7 -15.1003 189.6 11.5997C159.6 23.2997 130.9 46.2997 120 77.4997C106.1 117 131.8 157 151.9 189.3C174.1 225 200.2 265.4 191.6 309.7C184.5 346.3 153 364.6 120.9 377C92.9999 387.7 62.9999 395.8 39.2999 414.6C11.9999 436.4 -2.90013 472.1 1.09987 506.7C5.39987 543.6 28.6999 574.8 54.2999 600.2C79.4999 625.2 117.2 655.8 108 696.1C103.4 716.3 88.1999 732.6 68.5999 738.9C67.9999 739.1 67.9999 739.8 68.2999 740.1C67.4999 739.8 66.6999 740.5 66.3999 741.3C65.9999 742.2 66.2999 743.6 66.5999 744.5C66.7332 745.1 66.9665 745.6 67.2999 746H778.4C781.8 738.3 788.3 732.7 794.5 726.8C801.2 720.3 807.5 713.4 813.2 705.9C825.3 690.2 835.2 672.3 841 653.2C851.6 618.1 843.3 583.6 819.6 556.1Z" fill="#89D6CE"/>
<path d="M821.5 746C821.5 736.3 643.1 728.5 423 728.5C202.9 728.5 24.5 736.3 24.5 746C24.5 755.7 202.9 763.5 423 763.5C643.1 763.5 821.5 755.7 821.5 746Z" fill="#C2BEDB"/>
<path d="M682.2 224.6C676.1 229.2 670 232.9 662.9 235.7C658.5 237.4 653.6 238.4 649.4 240.5C644.5 242.9 642 246.1 640.6 250.3C640.4 238 639.5 225.6 637.9 213.3C642.3 217 650.6 214 655 211.5C661.8 207.6 666 200.8 665.7 192.9C665.7 192.3 665 191.8 664.4 192.2C660.5 194.7 656.4 196.8 651.9 198.1C649 199 645.9 199.5 643.2 201C640.2 202.7 638.1 204.9 637.4 208.1C637.333 208.1 637.3 208.1 637.3 208.1C636.1 199.9 634.6 191.8 632.8 183.7C642.7 187.5 651 176.9 648.8 167.4C648.6 166.7 647.5 166.3 647 166.9C643.4 171.9 633.7 172.7 631.7 178.7C630.9 175.3 630.033 171.9 629.1 168.5C628.9 167.8 627.9 168.1 628 168.8C629.533 175.6 630.866 182.433 632 189.3C630.5 187.8 628.4 186.8 626 186.5C622.6 186.1 619.9 187.4 616.6 187.8C613.2 188.3 610.8 185.9 607.4 186.9C606.4 187.2 605.9 188.2 606.1 189.3C607.1 194.8 611.2 200.1 616.6 202.1C622.6 204.3 628.4 201.1 633.3 197.7C634.7 207.5 635.7 217.3 636.3 227.1C632.5 220.9 625.2 219.3 617.9 217.8C614.6 217.1 612.2 215.9 609.5 214C608.6 213.4 608 212.7 606.9 212.7C602.2 212.8 603.7 219.7 604.4 222.5C605.1 225.7 606.2 229 607.9 231.8C610.2 235.4 613.8 238 618 238.8C624.7 240.2 632.8 238.2 636.6 232.2C637.133 242.8 637.166 253.4 636.7 264C636.566 263.8 636.4 263.6 636.2 263.4C634.9 261.1 632.2 260.7 629.5 261.1C626.8 261.4 624.8 261.5 622.1 260.6C620.7 260 619.2 259.3 617.7 259.8C617.3 259.8 617.2 260.1 617.1 260.5C616.8 265.4 621.4 270.5 625.8 272C630 273.3 633.5 272.1 636.5 269.6C636.166 274.333 635.766 279.1 635.3 283.9C633.3 281.3 630.3 280.1 626.8 279.9C622.5 279.6 618.5 280.2 614.3 278.9C610 277.6 605.9 275.6 601.8 274C601 273.6 600 274.2 600.3 275.2C602.2 281.7 605.4 292.9 612.2 296C616 297.7 621 296.8 624.7 295.1C628.6 293.3 631 289 634.9 287.4C633.4 301 630.9 314.5 627.5 327.8C627.433 328.067 627.366 328.333 627.3 328.6C626.6 325.6 624.8 323 622.1 321.5C619.4 319.9 616.2 319.3 613.4 318C610.7 316.8 608.2 315.1 605.3 314.1C604.7 313.9 604 314.4 603.8 315C602 321.3 600.7 331.7 608 335.3C612.4 337.6 621.1 338 625.7 334.4C623.233 342.867 620.4 351.2 617.2 359.4C615.8 355 612.6 351.6 608.4 348.6C604 345.5 598.9 343.5 594.7 340.1C587.6 334.4 584.8 326.8 582 318.4C581.7 317.5 580.5 317.3 580.1 318.1C572.3 331.5 568.4 350.8 577.8 364.6C585.3 375.5 604.1 371.3 615 365C609.7 377.6 603.5 389.9 596.5 401.8C592.6 408.3 588.5 414.6 584.2 420.8C585.5 413 578.5 409.1 572.1 405.6C565 401.8 560.3 397.1 556.7 389.7C553.9 383.8 552.5 376.3 548.7 370.9C548.4 370.6 548 370.2 547.5 370.3C540.3 371.3 535.7 384.7 533.5 390.7C530.5 399.1 530.8 407.8 535.1 415.8C543.2 430.9 562.1 435.4 577.6 430.1C567.7 443.7 557.3 457 547.7 470.8C546.4 472.8 549.5 475 551 473.3C568.9 452.9 585.4 430.7 599.2 407.1C599.9 423 617.5 434.3 632.4 431.7C647.9 429 664.8 411 667.9 395.8C668.1 394.9 667.3 394 666.3 394.3C659.7 396.2 653 398.6 646.2 399.9C636.5 401.7 631.3 398.2 622.3 396.9C615.5 395.9 609.1 396.7 603.4 399.7C612.9 382.7 620.8 364.9 626.8 346.4C638.4 351.7 652 351.3 662.7 344C672.8 337.1 683.4 320.8 682.2 308.3C682.1 307.4 681.2 306.8 680.4 307.3C667.8 314.7 654.5 316.4 641.5 322C637.4 323.8 634.1 326.1 631.7 329.3C631.9 328.6 632.1 328 632.2 327.3C634.466 318.033 636.266 308.667 637.6 299.2C653.2 316.6 676.1 299.9 680.2 281C680.4 280 679.3 279.1 678.4 279.7C672.9 283.4 667.3 285.9 660.6 285.2C657.6 284.8 655.2 284.3 652.2 284.8C646.5 285.6 641.8 288.7 638.4 293.1C639.9 280.4 640.7 267.7 640.7 255C640.833 255.133 641 255.267 641.2 255.4C649.9 260.1 660.7 257.6 668.9 252.4C677.2 247.2 681.2 235 684 226C684.3 225 683 224 682.2 224.6Z" fill="#89D6CE"/>
<path d="M689 316.8C683.8 322.1 676.7 329.3 676.1 337.1C675.6 344.7 677.8 353.1 684.3 357.5C684.434 357.633 684.6 357.7 684.8 357.7C675.867 362.433 667.267 367.667 659 373.4C660.8 369.4 661.2 365 659.8 360.6C659 358.4 657.7 356.9 656.4 355C653.3 350.5 653.1 345.7 653.6 340.5C653.7 339.7 652.6 339.3 652.1 339.8C640.4 349.6 637.2 371.7 655.1 376.2C648.967 380.6 643.067 385.3 637.4 390.3C637.067 390.633 636.7 391 636.3 391.4C637.6 388.5 638 385.4 637.7 381.9C636.9 370.7 633.1 360.8 633.7 349.3C633.7 348.6 633 348.2 632.3 348.4C623.1 352.2 615.7 365.6 614.6 375.2C613.4 385.4 618.2 395 626.1 401.1C615.5 412.1 606 424.2 597.6 437.1C597.6 432 595.8 427.2 592.6 422.9C588.3 417.1 584 414.8 581.7 407.3C580.1 402.1 579.2 396.5 578.2 391.2C578 390.4 577.1 390.2 576.5 390.7C567.1 398.4 560.7 416.9 564.6 428.7C568.3 440 582.7 448.2 594 442.7C582.6 461.1 573.3 480.8 565.6 500.8C565 502.5 567.7 503.8 568.6 502.2C574.7 490.4 580.1 478.3 585.9 466.3C587.9 479.1 598.1 490.6 611.6 490.7C618.7 490.7 624.9 487.7 629.7 482.5C633.1 478.8 640.7 470.6 638.8 465.2C638.6 464.9 638.2 464.7 637.9 464.6C632.7 463.9 627 465.8 621.8 466C615.4 466.2 610.3 464.7 605.1 461.1C600.3 457.9 595 454.5 590 458.3C592.7 453 595.6 447.8 598.7 442.7C604.367 433.367 610.667 424.533 617.6 416.2C617.1 426.1 621.1 440.8 631.6 442C644.6 443.5 656.6 433.7 663.1 423.3C663.5 422.6 662.9 421.9 662.2 422C655.3 423.2 649 424 642.3 421.2C638.4 419.5 635.2 416.7 631.4 414.8C627.8 412.9 624.2 412 620.6 412.6C625.134 407.333 629.9 402.3 634.9 397.5C634.1 401.9 637.6 407.9 640.8 410.2C646 413.9 652.8 409.1 656.5 405.5C656.9 405.2 657 404.6 656.6 404.2C654.8 402.6 652.8 401.4 650.9 400C648.9 398.5 647.3 396.5 645.3 395.2C643.2 393.9 640.7 393.6 638.4 394.2C638.534 394.067 638.7 393.933 638.9 393.8C646.9 386.5 655.4 379.8 664.3 373.7C664.6 377 662.5 380.3 662.7 383.7C662.8 386.8 664.1 390.6 666.7 392.7C671.4 396.3 680.3 394.4 685.6 393.3C686.4 393.2 686.4 392.2 685.9 391.8C683.2 389.5 680.3 387.4 677.8 385C675.4 382.5 674.3 379.5 672.5 376.6C671 374.2 669.1 372.5 666.6 372.1C669.734 370.033 672.9 368 676.1 366C675.5 369 675.9 371.9 678.4 374.3C681 376.8 686.4 378.2 689.6 376.1C689.8 376 690 375.8 689.9 375.5C689.6 374.3 688.6 373.5 687.7 372.7C686.1 371.2 685.5 369.8 684.7 367.8C683.9 365.7 682.7 364 680.5 363.9C680.3 363.9 680.1 363.867 679.9 363.8C687.1 359.533 694.5 355.633 702.1 352.1C699.4 357 701 363.4 704.4 367.6C706.5 370.2 709.6 371.7 713 372C715.6 372.1 718.3 371.7 720.8 371C723 370.5 728.4 369 726.7 365.7C726.3 364.9 725.6 364.8 724.8 364.4C722.5 363.1 720.8 361.9 719.1 359.8C715.4 355.3 711.6 350.8 705.8 350.4C712.867 347.267 720.067 344.367 727.4 341.7C726.9 346.4 726.8 351.6 730.5 355C733.9 358 739.1 358.9 743.4 357.5C744.1 357.3 744.7 356.6 744.5 355.7C744 353.1 741.4 352.2 740.5 349.7C739.5 347.2 739.5 344.9 737.9 342.6C736.9 341.1 735.4 340 733.8 339.5C739 337.767 744.234 336.167 749.5 334.7C750.1 334.6 749.9 333.7 749.3 333.8C746.634 334.467 743.967 335.133 741.3 335.8C744.7 332.2 741.7 325.1 743.8 320.8C744.1 320.2 743.4 319.6 742.9 319.7C735.4 321.7 731.1 331.3 737.4 336.9C731.067 338.633 724.834 340.6 718.7 342.8C718.7 342.733 718.7 342.667 718.7 342.6C720.6 341 721.4 338.7 721.5 336C721.5 333.6 720.7 331.3 720.3 328.9C719.6 325.3 719.5 321.7 719.8 318C719.9 317.4 719.3 317.1 718.8 317.3C713.2 320 710 325.5 709.8 331.7C709.7 335.6 710.7 342.5 714.8 344.2C705.7 347.7 696.7 351.6 688 356C690.5 353.5 691.8 350.6 691.7 346.3C691.6 342.6 690.4 338.8 690 335.1C689.3 329.1 689.7 323.5 690.6 317.6C690.7 316.7 689.6 316.2 689 316.8Z" fill="#A39EC0"/>
<path d="M138.601 400.9C141.501 409.9 145.401 422.1 153.801 427.4C162.001 432.5 172.701 435 181.501 430.3C181.701 430.233 181.867 430.1 182.001 429.9C182.001 442.6 182.801 455.4 184.301 468C180.801 463.6 176.201 460.6 170.401 459.7C167.401 459.2 165.001 459.8 162.101 460.1C155.301 460.9 149.801 458.3 144.201 454.6C143.401 454 142.301 455 142.501 455.9C146.601 474.8 169.401 491.5 185.101 474.1C186.434 483.567 188.201 492.933 190.401 502.2C190.601 502.9 190.801 503.5 190.901 504.2C188.501 501 185.201 498.7 181.201 497C168.201 491.3 154.801 489.6 142.301 482.2C141.501 481.7 140.601 482.3 140.501 483.2C139.301 495.7 149.901 512 160.001 518.9C170.701 526.2 184.301 526.6 195.801 521.3C201.801 539.8 209.801 557.6 219.201 574.6C213.501 571.7 207.101 570.8 200.401 571.8C191.301 573.1 186.201 576.6 176.401 574.8C169.701 573.6 162.901 571.2 156.301 569.2C155.401 568.9 154.501 569.8 154.701 570.8C157.801 585.9 174.701 603.9 190.201 606.6C205.101 609.2 222.801 597.9 223.401 582C237.201 605.7 253.801 627.8 271.601 648.2C273.201 649.9 276.301 647.7 274.901 645.8C265.301 631.9 255.001 618.7 245.101 605.1C260.501 610.3 279.501 605.8 287.501 590.8C291.801 582.8 292.101 574.1 289.101 565.6C287.001 559.6 282.301 546.2 275.101 545.2C274.701 545.1 274.201 545.5 274.001 545.9C270.101 551.2 268.801 558.7 265.901 564.6C262.301 572 257.701 576.7 250.601 580.5C244.101 584 237.101 587.9 238.401 595.7C234.201 589.6 230.001 583.3 226.101 576.8C219.101 564.9 212.901 552.6 207.601 539.9C218.501 546.2 237.301 550.5 244.801 539.5C254.301 525.7 250.401 506.5 242.601 493.1C242.101 492.2 240.901 492.4 240.601 493.3C237.901 501.7 235.101 509.3 227.901 515.1C223.701 518.5 218.701 520.4 214.301 523.5C210.101 526.5 206.901 529.9 205.401 534.3C202.201 526.1 199.401 517.767 197.001 509.3C201.501 512.9 210.201 512.5 214.701 510.3C222.001 506.6 220.701 496.2 218.801 489.9C218.601 489.3 218.001 488.8 217.401 489.1C214.501 490 212.001 491.7 209.201 493C206.401 494.3 203.201 494.8 200.601 496.4C197.901 497.9 196.101 500.6 195.401 503.5C195.334 503.233 195.267 502.967 195.201 502.7C191.701 489.4 189.301 475.9 187.701 462.4C191.601 463.9 194.101 468.2 198.001 470C201.601 471.8 206.601 472.6 210.401 470.9C217.201 467.8 220.401 456.7 222.401 450.1C222.701 449.1 221.601 448.6 220.801 448.9C216.701 450.5 212.601 452.6 208.401 453.8C204.201 455.1 200.201 454.5 195.901 454.8C192.301 455.1 189.301 456.2 187.401 458.8C186.867 454.067 186.467 449.3 186.201 444.5C189.101 447 192.601 448.3 196.801 446.9C201.201 445.4 205.901 440.3 205.501 435.4C205.501 435.1 205.301 434.8 205.001 434.7C203.401 434.3 202.001 435 200.501 435.5C197.901 436.4 195.901 436.3 193.201 436C190.401 435.7 187.801 436 186.401 438.4C186.267 438.6 186.101 438.8 185.901 439C185.434 428.4 185.467 417.767 186.001 407.1C189.901 413.1 198.001 415.1 204.701 413.8C208.901 412.9 212.401 410.4 214.701 406.7C216.501 403.9 217.501 400.6 218.301 397.4C218.901 394.6 220.501 387.7 215.801 387.6C214.701 387.6 214.101 388.3 213.201 389C210.401 390.9 208.001 392.1 204.701 392.7C197.501 394.2 190.201 395.8 186.301 402C186.967 392.2 188.001 382.433 189.401 372.7C194.201 376 200.001 379.2 206.001 377C211.401 375 215.501 369.8 216.501 364.2C216.701 363.2 216.301 362.1 215.201 361.8C211.901 360.8 209.401 363.2 206.001 362.8C202.701 362.3 200.101 361 196.601 361.4C194.301 361.7 192.201 362.7 190.701 364.2C191.834 357.333 193.134 350.5 194.601 343.7C194.801 343 193.701 342.7 193.501 343.4C192.634 346.8 191.801 350.2 191.001 353.6C188.901 347.6 179.301 346.8 175.601 341.9C175.101 341.2 174.001 341.6 173.801 342.3C171.601 351.8 179.901 362.4 189.901 358.7C188.101 366.7 186.601 374.9 185.401 383C185.334 383 185.267 383 185.201 383C184.501 379.8 182.401 377.6 179.401 375.9C176.701 374.5 173.701 373.9 170.801 373C166.301 371.7 162.201 369.7 158.301 367.1C157.701 366.7 156.901 367.2 156.901 367.8C156.601 375.8 160.901 382.5 167.701 386.4C172.001 388.9 180.301 391.9 184.701 388.2C183.101 400.5 182.201 412.9 182.001 425.2C180.701 421 178.201 417.8 173.301 415.4C169.101 413.3 164.201 412.4 159.801 410.7C152.601 407.9 146.601 404.1 140.501 399.6C139.601 398.9 138.301 399.9 138.601 400.9Z" fill="#EFAC3F"/>
<path d="M159.6 512.3C160.6 518.2 160.9 523.8 160.2 529.8C159.8 533.5 158.7 537.3 158.6 541C158.4 545.3 159.7 548.2 162.2 550.7C153.5 546.3 144.5 542.4 135.4 538.9C139.5 537.2 140.5 530.3 140.4 526.4C140.2 520.2 137.1 514.7 131.4 512C131 511.8 130.3 512.1 130.4 512.7C130.8 516.4 130.7 520 129.9 523.6C129.5 526 128.7 528.3 128.8 530.7C128.8 533.4 129.6 535.7 131.5 537.3C131.5 537.367 131.5 537.434 131.5 537.5C125.367 535.3 119.167 533.333 112.9 531.6C119.1 526 114.8 516.4 107.4 514.4C106.8 514.3 106.1 514.9 106.4 515.5C108.5 519.8 105.5 526.9 109 530.5C106.267 529.834 103.567 529.167 100.9 528.5C100.3 528.4 100.1 529.3 100.7 529.4C105.967 530.867 111.234 532.467 116.5 534.2C114.8 534.7 113.3 535.8 112.3 537.3C110.7 539.6 110.7 541.9 109.7 544.4C108.8 546.9 106.3 547.8 105.7 550.4C105.5 551.3 106.1 552 106.9 552.2C111.1 553.6 116.3 552.7 119.7 549.7C123.5 546.3 123.4 541.1 122.8 536.4C130.134 539.067 137.333 541.967 144.4 545.1C138.6 545.5 134.8 550 131.1 554.5C129.4 556.6 127.7 557.8 125.4 559.1C124.6 559.4 123.9 559.6 123.5 560.4C121.8 563.7 127.2 565.2 129.4 565.7C131.9 566.4 134.6 566.8 137.2 566.7C140.6 566.4 143.7 564.9 145.8 562.2C149.2 558.1 150.8 551.7 148.1 546.8C155.7 550.334 163.1 554.234 170.3 558.5C170.1 558.567 169.9 558.6 169.7 558.6C167.6 558.7 166.4 560.4 165.6 562.5C164.8 564.5 164.1 565.9 162.5 567.4C161.6 568.2 160.6 569 160.3 570.2C160.2 570.5 160.4 570.7 160.6 570.8C163.9 572.9 169.2 571.5 171.8 569C174.3 566.6 174.7 563.7 174.1 560.7C177.3 562.7 180.467 564.734 183.6 566.8C181.1 567.2 179.2 568.9 177.7 571.3C175.9 574.2 174.8 577.2 172.4 579.6C169.9 582.1 167 584.2 164.3 586.5C163.8 586.9 163.9 587.9 164.6 588C169.9 589.1 178.9 591 183.5 587.4C186.1 585.3 187.4 581.5 187.5 578.4C187.7 575 185.6 571.7 186 568.4C194.8 574.5 203.4 581.2 211.4 588.5C211.534 588.634 211.667 588.767 211.8 588.9C209.5 588.3 207 588.6 204.9 589.9C202.9 591.2 201.3 593.2 199.4 594.7C197.5 596.1 195.4 597.3 193.6 598.9C193.3 599.3 193.4 599.9 193.7 600.2C197.4 603.8 204.2 608.6 209.4 604.9C212.6 602.6 216.1 596.6 215.3 592.2C220.3 597 225.067 602.034 229.6 607.3C226 606.7 222.4 607.6 218.8 609.5C215 611.4 211.8 614.2 207.9 615.9C201.2 618.7 194.9 617.9 188 616.7C187.3 616.6 186.7 617.3 187.1 618C193.6 628.4 205.6 638.2 218.7 636.7C229.1 635.5 233.1 620.8 232.7 610.9C239.567 619.234 245.834 628.067 251.5 637.4C254.7 642.5 257.5 647.7 260.2 653C255.3 649.2 250 652.6 245.2 655.8C239.9 659.4 234.9 660.9 228.4 660.7C223.2 660.5 217.5 658.6 212.4 659.3C212 659.4 211.6 659.6 211.5 659.9C209.5 665.3 217.1 673.5 220.5 677.2C225.3 682.4 231.5 685.4 238.6 685.4C252.1 685.3 262.3 673.8 264.3 661C270.1 673 275.5 685.1 281.7 696.9C282.5 698.5 285.2 697.2 284.6 695.5C277 675.5 267.6 655.8 256.2 637.4C267.5 642.9 281.9 634.7 285.6 623.4C289.5 611.6 283.1 593.1 273.7 585.4C273.2 584.9 272.2 585.1 272 585.9C271 591.2 270.2 596.8 268.5 602C266.2 609.5 261.9 611.8 257.6 617.6C254.4 621.9 252.7 626.7 252.6 631.8C244.2 618.9 234.8 606.8 224.1 595.8C232 589.7 236.8 580.1 235.6 569.9C234.5 560.3 227.1 546.9 217.9 543.1C217.3 542.9 216.5 543.3 216.6 544C217.1 555.5 213.4 565.4 212.5 576.6C212.2 580.1 212.6 583.2 213.9 586.1C213.567 585.7 213.2 585.334 212.8 585C207.133 580 201.234 575.3 195.1 570.9C213.1 566.4 209.8 544.3 198.2 534.5C197.6 534 196.5 534.4 196.6 535.2C197.2 540.4 196.9 545.2 193.8 549.7C192.5 551.6 191.3 553.1 190.5 555.3C189 559.7 189.4 564.1 191.2 568.1C182.934 562.367 174.367 557.134 165.5 552.4C165.634 552.4 165.767 552.334 165.9 552.2C172.4 547.8 174.7 539.4 174.1 531.8C173.5 524 166.5 516.8 161.2 511.5C160.7 510.9 159.5 511.4 159.6 512.3Z" fill="#89D6CE"/>
<path d="M610.401 601.601C609.601 598.801 608.601 595.101 606.101 593.301C603.701 591.701 600.501 590.801 597.801 592.001C597.734 592.067 597.668 592.134 597.601 592.201C597.801 588.334 597.768 584.467 597.501 580.601C598.501 582.001 599.801 583.001 601.601 583.301C602.501 583.501 603.201 583.401 604.101 583.301C606.201 583.201 607.801 584.001 609.401 585.201C609.701 585.401 610.001 585.101 610.001 584.801C609.001 579.101 602.301 573.701 597.301 578.701C597.034 575.834 596.634 572.967 596.101 570.101C596.034 569.901 596.001 569.701 596.001 569.501C596.701 570.501 597.601 571.301 598.801 571.901C602.701 573.801 606.701 574.501 610.401 576.901C610.601 577.101 610.901 576.901 611.001 576.601C611.501 572.901 608.501 567.801 605.601 565.501C602.401 563.201 598.301 562.901 594.701 564.301C593.201 558.601 591.001 553.101 588.401 547.801C590.101 548.801 592.001 549.101 594.101 548.901C596.801 548.701 598.401 547.701 601.401 548.401C603.401 548.801 605.401 549.701 607.401 550.401C607.701 550.501 607.901 550.201 607.901 549.901C607.201 545.301 602.301 539.601 597.601 538.501C593.201 537.601 587.701 540.701 587.201 545.501C583.401 538.201 578.701 531.201 573.601 524.801C573.101 524.301 572.201 524.901 572.501 525.501C575.301 529.801 578.201 534.001 581.001 538.201C576.401 536.401 570.601 537.501 568.001 542.001C566.501 544.301 566.301 547.001 567.101 549.601C567.701 551.401 568.901 555.501 571.101 555.901C571.201 556.001 571.301 555.901 571.401 555.801C572.701 554.201 573.201 551.901 574.101 550.201C575.301 548.001 576.801 546.701 579.001 545.601C581.001 544.601 583.201 543.601 582.901 541.201C584.101 543.067 585.234 545.034 586.301 547.101C588.301 550.767 590.001 554.567 591.401 558.501C588.201 556.401 582.601 554.901 580.201 558.101C577.101 562.101 578.001 568.001 580.201 572.201C580.301 572.401 580.701 572.401 580.801 572.201C581.701 569.601 582.701 567.401 584.901 565.701C586.301 564.801 587.801 564.201 589.201 563.401C590.501 562.501 591.501 561.501 592.001 560.201C592.868 562.734 593.601 565.301 594.201 567.901C592.901 566.801 590.301 566.801 588.901 567.401C586.601 568.401 586.901 571.501 587.301 573.501C587.401 573.701 587.601 573.801 587.801 573.801C588.701 573.501 589.401 573.001 590.301 572.701C591.101 572.301 592.101 572.201 593.001 571.801C593.801 571.301 594.401 570.601 594.601 569.701C594.668 569.767 594.701 569.834 594.701 569.901C595.501 574.034 596.068 578.167 596.401 582.301C595.201 581.701 594.501 580.401 593.401 579.801C592.301 579.201 590.801 578.901 589.601 579.401C587.501 580.201 586.401 583.501 585.701 585.501C585.601 585.801 585.901 586.001 586.201 585.901C587.401 585.401 588.701 584.901 590.001 584.601C591.301 584.201 592.501 584.501 593.801 584.401C594.901 584.401 595.801 584.101 596.401 583.301C596.534 584.767 596.601 586.234 596.601 587.701C595.701 586.901 594.701 586.501 593.401 586.801C592.001 587.201 590.601 588.701 590.601 590.201C590.601 590.267 590.668 590.334 590.801 590.401C591.201 590.501 591.701 590.401 592.101 590.201C592.901 590.001 593.501 590.001 594.301 590.201C595.201 590.301 596.001 590.201 596.401 589.501C596.468 589.501 596.534 589.467 596.601 589.401C596.601 592.601 596.434 595.801 596.101 599.001C595.001 597.101 592.601 596.401 590.601 596.701C589.301 596.901 588.101 597.701 587.401 598.701C586.801 599.601 586.501 600.501 586.201 601.501C586.001 602.301 585.401 604.401 586.801 604.501C587.101 604.501 587.301 604.301 587.601 604.101C588.501 603.601 589.201 603.301 590.201 603.101C592.401 602.801 594.701 602.401 595.901 600.501C595.568 603.501 595.134 606.467 594.601 609.401C593.201 608.301 591.501 607.301 589.601 607.801C588.001 608.401 586.601 609.901 586.301 611.601C586.201 611.901 586.301 612.201 586.601 612.301C587.601 612.701 588.401 612.001 589.401 612.201C590.401 612.301 591.201 612.801 592.301 612.701C593.001 612.701 593.601 612.401 594.101 611.901C593.634 613.967 593.134 616.034 592.601 618.101C592.501 618.301 592.901 618.401 592.901 618.201C593.234 617.201 593.534 616.167 593.801 615.101C594.401 617.001 597.301 617.401 598.301 618.901C598.501 619.101 598.801 619.001 598.901 618.801C599.701 616.001 597.301 612.601 594.301 613.601C594.901 611.201 595.468 608.767 596.001 606.301C596.201 607.301 596.801 608.001 597.701 608.501C598.501 609.001 599.401 609.201 600.201 609.501C601.601 610.001 602.801 610.701 603.901 611.501C604.101 611.601 604.301 611.501 604.401 611.301C604.601 608.901 603.401 606.801 601.401 605.501C600.101 604.701 597.601 603.701 596.201 604.701C596.868 601.034 597.334 597.334 597.601 593.601C597.901 594.901 598.601 595.901 600.101 596.701C601.301 597.401 602.801 597.701 604.101 598.301C606.201 599.301 608.001 600.501 609.801 601.901C610.001 602.201 610.401 601.901 610.401 601.601Z" fill="#BAD7FF"/>
<path d="M771.702 382.1C727.702 398.4 678.002 392.2 635.602 413.7C619.202 422 604.302 433.9 593.102 448.5C579.802 465.6 573.802 484.4 570.702 505.6C570.635 505.8 570.635 505.967 570.702 506.1C569.402 509.7 568.602 513.4 568.202 517.4C568.102 518.9 569.702 519.7 570.902 519.5C597.302 513.6 624.202 512.8 651.002 510.4C673.202 508.4 697.502 506.5 714.502 490.3C724.902 480.4 733.702 468.9 740.402 456.2C747.702 442.6 751.202 427.5 757.802 413.6C762.602 403.5 769.602 394.5 773.302 383.7C773.702 382.8 772.602 381.7 771.702 382.1Z" fill="#EFAC3F"/>
<path d="M738.501 403.2C700.001 420.7 663.501 442.3 628.801 466.4C613.301 477.1 598.101 488.5 583.901 500.9C579.701 504.5 575.501 508.2 571.401 511.9C569.267 513.9 567.167 515.9 565.101 517.9C563.401 519.7 560.901 521.3 562.901 523.9C563.601 524.7 564.801 525.6 565.901 525.3C566.801 525.1 567.001 524.2 567.601 523.5C569.501 521.1 571.901 519 574.101 516.9C578.401 512.6 582.901 508.5 587.501 504.5C602.901 491.2 619.301 479.2 635.801 467.5C668.701 444.1 703.601 423.6 739.301 404.6C740.201 404.1 739.401 402.8 738.501 403.2Z" fill="#A39EC0"/>
<path d="M773.202 382.7C763.502 392 754.702 402.3 747.602 412.7C732.802 434.1 722.402 464.9 698.702 478.1C674.802 491.3 645.202 488.1 619.302 493.6C600.402 497.6 583.602 506.3 570.102 519.5C570.368 519.5 570.635 519.5 570.902 519.5C597.302 513.6 624.202 512.8 651.002 510.4C673.202 508.4 697.502 506.5 714.502 490.3C724.902 480.4 733.702 468.9 740.402 456.2C747.702 442.6 751.202 427.5 757.802 413.6C762.602 403.5 769.602 394.5 773.302 383.7C773.502 383.4 773.402 383 773.202 382.7Z" fill="#EFAC3F"/>
<path d="M716.801 565.7C691.201 550.6 674.301 523.7 646.801 511.5C636.101 506.8 624.301 504.3 612.601 504.6C598.901 504.9 587.301 509.5 575.601 516.5C575.535 516.567 575.468 516.634 575.401 516.7C573.101 517.5 571.001 518.6 568.801 520C568.101 520.5 568.301 521.7 568.901 522.2C582.301 532.8 593.501 545.6 605.501 557.9C615.301 568 626.001 579.1 640.801 581C649.801 582.1 659.001 581.8 667.901 580C677.501 578.2 686.301 573.8 695.801 571.5C702.701 569.8 709.901 569.7 716.701 567.2C717.301 566.9 717.401 566 716.801 565.7Z" fill="#89D6CE"/>
<path d="M693.201 557.8C669.201 545.9 643.901 536.7 618.201 529.3C606.701 526 595.001 523.1 583.201 521.1C579.801 520.5 576.301 519.9 572.801 519.4C571.001 519.133 569.167 518.9 567.301 518.7C565.801 518.5 564.001 518 563.501 520C563.401 520.7 563.401 521.6 564.001 522C564.501 522.4 565.001 522.2 565.601 522.2C567.501 522.1 569.501 522.5 571.401 522.7C575.267 523.1 579.101 523.633 582.901 524.3C595.601 526.5 608.001 529.8 620.401 533.2C645.101 540 669.201 548.9 692.801 558.8C693.401 559 693.701 558.1 693.201 557.8Z" fill="#424060"/>
<path d="M717.2 566.7C708.7 565.6 700.1 565.5 692.1 566.1C675.7 567.4 656.4 574.7 640.4 568.3C624.4 561.9 614.1 546.1 601 535.5C591.4 527.9 580.4 523.1 568.5 521.7C568.633 521.9 568.767 522.067 568.9 522.2C582.3 532.8 593.5 545.6 605.5 557.9C615.3 568 626 579.1 640.8 581C649.8 582.1 659 581.8 667.9 580C677.5 578.2 686.3 573.8 695.8 571.5C702.7 569.8 709.9 569.7 716.7 567.2C716.9 567.1 717.1 566.9 717.2 566.7Z" fill="#89D6CE"/>
<path d="M110.001 613.6C113.701 621.5 119.801 627.8 124.301 635.1C130.401 645.2 134.201 656.4 140.801 666.2C147.001 675.3 154.601 683.4 163.301 690.1C177.501 701.1 196.201 700.7 213.201 700.4C233.901 700.1 254.401 698.7 275.001 701C275.901 701.1 277.101 700.3 276.901 699.3C276.301 696.2 275.301 693.5 274.101 690.8C274.101 690.667 274.101 690.534 274.101 690.4C270.001 674.5 264.001 660.7 252.501 648.7C242.801 638.5 230.501 630.5 217.401 625.5C183.401 612.5 146.001 621.2 111.201 612.2C110.401 612 109.701 612.9 110.001 613.6Z" fill="#BAD7FF"/>
<path d="M138.2 625.6C168.9 635.9 198.4 649.5 226.7 665.1C239.4 672.1 251.8 679.6 263.6 687.9C267.1 690.3 270.6 692.8 274 695.3C275.8 696.634 277.567 698 279.3 699.4C280.8 700.6 282.8 701.6 281.4 703.8C281 704.4 280.1 705.2 279.3 705.1C278.6 705 278.3 704.4 277.8 703.9C276.2 702.2 274.2 700.8 272.4 699.3C268.733 696.367 264.967 693.567 261.1 690.9C248.4 682 235 674.2 221.5 666.5C194.5 651.3 166.3 638.5 137.7 626.7C136.9 626.4 137.4 625.4 138.2 625.6Z" fill="#424060"/>
<path d="M110.1 612.7C118.2 619.1 125.7 626.3 132 633.6C144.9 648.7 155.3 671.4 174.4 679.5C193.6 687.7 215.9 683 236.1 685.1C250.8 686.7 264.3 692 275.6 700.9C275.4 700.967 275.2 701 275 701C254.4 698.7 233.9 700.1 213.2 700.4C196.2 700.7 177.5 701.1 163.3 690.1C154.6 683.4 147 675.3 140.8 666.2C134.2 656.4 130.4 645.2 124.3 635.1C119.8 627.8 113.7 621.5 110 613.6C109.9 613.3 110 613 110.1 612.7Z" fill="#A4C8F4"/>
<path d="M153.6 710C158.1 713.3 163.4 714.9 168.1 717.6C174.6 721.3 180.1 726.4 186.8 729.8C193 733 199.7 735.1 206.6 736.2C217.8 737.9 228.1 732 237.5 726.6C248.8 720.1 259.8 713 271.9 708C272.5 707.8 272.9 707 272.4 706.5C271.2 705 269.8 703.7 268.3 702.6C268.3 702.533 268.267 702.466 268.2 702.4C261 694.9 253.4 689 243.4 685.9C234.9 683.2 225.7 682.5 216.8 683.8C193.9 687 175.9 703.2 153.8 708.9C153.3 709 153.2 709.8 153.6 710Z" fill="#89D6CE"/>
<path d="M172.9 708.099C193.1 704.399 213.6 702.899 234.1 702.899C243.3 702.899 252.5 703.199 261.6 704.199C264.3 704.499 267 704.799 269.6 705.099C271 705.299 272.4 705.533 273.8 705.799C275 705.999 276.4 705.999 276.3 707.599C276.3 708.099 276.1 708.699 275.6 708.899C275.1 709.099 274.8 708.899 274.4 708.699C273 708.299 271.4 708.099 269.9 707.899C267.034 707.366 264.1 706.966 261.1 706.699C251.4 705.599 241.5 705.399 231.6 705.299C212 705.099 192.4 706.599 173 708.899C172.4 708.899 172.4 708.199 172.9 708.099Z" fill="#424060"/>
<path d="M153.4 709.6C159.8 710.6 166.2 712.3 171.9 714.5C183.7 718.9 196.4 728.3 209.5 726.9C222.7 725.6 233.6 716.1 245.5 711.1C254.1 707.5 263.2 706.3 272.3 707.8C272.167 707.866 272.034 707.933 271.9 708C259.8 713 248.8 720.1 237.5 726.6C228.1 732 217.8 737.9 206.6 736.2C199.7 735.1 193 733 186.8 729.8C180.1 726.4 174.6 721.3 168.1 717.6C163.4 714.9 158.1 713.3 153.6 710C153.467 709.933 153.4 709.8 153.4 709.6Z" fill="#89D6CE"/>
<path d="M536.1 746.3H307.1C284.7 746.3 266.5 728.2 266.5 705.8V183.1C266.5 160.7 284.7 142.6 307.1 142.6H536.1C558.5 142.6 576.6 160.7 576.6 183.1V705.8C576.6 728.2 558.5 746.3 536.1 746.3Z" fill="#5E5C89"/>
<path d="M533.7 149.399H439.6V149.499C439.6 150.599 438.7 151.799 436.9 151.799H407.4C405.5 151.799 404.5 150.599 404.5 149.499V149.399H309.5C289.9 149.399 274 164.699 274 183.599V705.399C274 724.199 289.9 739.599 309.5 739.599H533.7C553.3 739.599 569.1 724.199 569.1 705.399V183.599C569.1 164.699 553.3 149.399 533.7 149.399Z" fill="#55517A"/>
<path d="M563.399 702.799V189.199C563.399 170.199 547.499 154.899 527.899 154.899H444.899C440.799 154.899 437.299 157.999 437.399 161.899C437.499 172.599 425.999 180.799 414.199 175.599C408.799 173.199 405.899 167.599 405.799 161.899C405.699 157.999 402.499 154.899 398.399 154.899H312.799C294.499 154.899 279.699 169.099 279.699 186.699V701.799C279.699 719.899 294.899 734.499 313.699 734.499H530.599C548.799 734.499 563.399 720.299 563.399 702.799Z" fill="#BAD7FF"/>
<path d="M522.9 398.2H482.4V340.1H522.9V398.2Z" fill="#89D6CE"/>
<path d="M320.299 212.199V514.399" stroke="white" stroke-width="0.5" stroke-miterlimit="10"/>
<path d="M563.399 281.999H279.699" stroke="white" stroke-width="0.5" stroke-miterlimit="10"/>
<path d="M563.399 212.199H279.699" stroke="white" stroke-width="0.5" stroke-miterlimit="10"/>
<path d="M563.399 340.1H279.699" stroke="white" stroke-width="0.5" stroke-miterlimit="10"/>
<path d="M563.399 398.199H279.699" stroke="white" stroke-width="0.5" stroke-miterlimit="10"/>
<path d="M563.399 456.299H279.699" stroke="white" stroke-width="0.5" stroke-miterlimit="10"/>
<path d="M563.399 514.399H279.699" stroke="white" stroke-width="0.5" stroke-miterlimit="10"/>
<path d="M360.799 212.199V514.399" stroke="white" stroke-width="0.5" stroke-miterlimit="10"/>
<path d="M401.299 212.199V514.399" stroke="white" stroke-width="0.5" stroke-miterlimit="10"/>
<path d="M441.898 212.199V514.399" stroke="white" stroke-width="0.5" stroke-miterlimit="10"/>
<path d="M482.398 212.199V514.399" stroke="white" stroke-width="0.5" stroke-miterlimit="10"/>
<path d="M522.898 212.199V514.399" stroke="white" stroke-width="0.5" stroke-miterlimit="10"/>
<path d="M428.6 165.3C428.6 169.1 425.4 172.3 421.6 172.3C417.7 172.3 414.6 169.1 414.6 165.3C414.6 161.4 417.7 158.3 421.6 158.3C425.4 158.3 428.6 161.4 428.6 165.3Z" fill="#5E5C89"/>
<path d="M426.999 165.299C426.999 168.299 424.599 170.699 421.599 170.699C418.599 170.699 416.199 168.299 416.199 165.299C416.199 162.299 418.599 159.899 421.599 159.899C424.599 159.899 426.999 162.299 426.999 165.299Z" fill="#55517A"/>
<path d="M422.899 165.3C422.899 166 422.299 166.6 421.599 166.6C420.899 166.6 420.299 166 420.299 165.3C420.299 164.6 420.899 164 421.599 164C422.299 164 422.899 164.6 422.899 165.3Z" fill="#BAD7FF"/>
<path d="M436.899 147.6H407.199C406.399 147.6 405.699 148.3 405.699 149.1V150.1C405.699 150.9 406.399 151.6 407.199 151.6H436.899C437.699 151.6 438.399 150.9 438.399 150.1V149.1C438.399 148.3 437.699 147.6 436.899 147.6Z" fill="#A39EC0"/>
<path d="M579.5 344.2C579.5 342 578.4 339.9 576.6 338.6V430.4C578.4 429.1 579.5 427 579.5 424.8V344.2Z" fill="#A39EC0"/>
<path d="M579.5 260.2C579.5 258 578.4 255.9 576.6 254.6V295.7C578.4 294.4 579.5 292.3 579.5 290.1V260.2Z" fill="#A39EC0"/>
<path d="M478.101 195.799L474.801 199.099C474.401 199.499 474.301 199.899 474.301 200.399C474.301 201.899 476.101 202.599 477.201 201.599L483.001 195.799C483.601 195.099 483.601 193.999 483.001 193.299L477.201 187.499C476.101 186.499 474.301 187.199 474.301 188.799C474.301 189.199 474.401 189.599 474.801 189.999L478.101 193.299C478.801 193.999 478.801 195.099 478.101 195.799Z" fill="#89D6CE"/>
<path d="M365.101 193.299L368.401 189.999C368.801 189.599 368.901 189.199 368.901 188.799C368.901 187.199 367.101 186.499 366.001 187.499L360.201 193.299C359.501 193.999 359.501 195.099 360.201 195.799L366.001 201.599C367.101 202.599 368.901 201.899 368.901 200.399C368.901 199.899 368.801 199.499 368.401 199.099L365.101 195.799C364.401 195.099 364.401 193.999 365.101 193.299Z" fill="#89D6CE"/>
<path d="M414.4 528.8H299.9V613.2H414.4V528.8Z" fill="#89D6CE"/>
<path d="M383.1 563.7H364.4V545H349.9V563.7H331.1V578.2H349.9V597H364.4V578.2H383.1V563.7Z" fill="white"/>
<path d="M547 528.8H432.5V613.2H547V528.8Z" fill="white"/>
<path d="M495.6 539.3H444.1V546.9H495.6V539.3Z" fill="#A39EC0"/>
<path d="M483 552.399H444.1V557.999H483V552.399Z" fill="#C2BEDB"/>
<path d="M522.1 562.7H444.1V568.4H522.1V562.7Z" fill="#C2BEDB"/>
<path d="M468.6 573.1H444.1V578.7H468.6V573.1Z" fill="#C2BEDB"/>
<path d="M509.299 573.1H473.799V578.7H509.299V573.1Z" fill="#C2BEDB"/>
<path d="M536.6 573.1H514.4V578.7H536.6V573.1Z" fill="#C2BEDB"/>
<path d="M496.6 583.5H444.1V589.1H496.6V583.5Z" fill="#C2BEDB"/>
<path d="M516.6 583.5H501.9V589.1H516.6V583.5Z" fill="#C2BEDB"/>
<path d="M483 593.8H444.1V599.5H483V593.8Z" fill="#C2BEDB"/>
<path d="M536.6 552.399H488.9V557.999H536.6V552.399Z" fill="#C2BEDB"/>
<path d="M518.299 539.3H500.299V546.9H518.299V539.3Z" fill="#A39EC0"/>
<path d="M414.4 631.5H299.9V716H414.4V631.5Z" fill="white"/>
<path d="M362.4 643.699H310.9V651.399H362.4V643.699Z" fill="#A39EC0"/>
<path d="M349.8 656.799H310.9V662.399H349.8V656.799Z" fill="#C2BEDB"/>
<path d="M388.8 667.199H310.9V672.799H388.8V667.199Z" fill="#C2BEDB"/>
<path d="M335.4 677.499H310.9V683.199H335.4V677.499Z" fill="#C2BEDB"/>
<path d="M376 677.499H340.5V683.199H376V677.499Z" fill="#C2BEDB"/>
<path d="M403.401 677.499H381.201V683.199H403.401V677.499Z" fill="#C2BEDB"/>
<path d="M363.3 687.899H310.9V693.499H363.3V687.899Z" fill="#C2BEDB"/>
<path d="M383.401 687.899H368.701V693.499H383.401V687.899Z" fill="#C2BEDB"/>
<path d="M349.8 698.299H310.9V703.899H349.8V698.299Z" fill="#C2BEDB"/>
<path d="M403.401 656.799H355.701V662.399H403.401V656.799Z" fill="#C2BEDB"/>
<path d="M385.1 643.699H367V651.399H385.1V643.699Z" fill="#A39EC0"/>
<path d="M547 631.5H432.5V716H547V631.5Z" fill="#EFAC3F"/>
<g opacity="0.2">
<path d="M527.899 154.899H444.899C440.799 154.899 437.299 157.999 437.399 161.899C437.499 172.599 425.999 180.799 414.199 175.599C408.799 173.199 405.899 167.599 405.799 161.899C405.699 157.999 402.499 154.899 398.399 154.899H324.599L279.699 199.699V470.499L563.299 186.899C562.099 168.999 546.699 154.899 527.899 154.899Z" fill="white"/>
<path d="M279.699 510.5V572.2L563.399 288.5V226.8L279.699 510.5Z" fill="white"/>
<path d="M279.699 701.8C279.699 719.9 294.899 734.5 313.699 734.5H428.299L563.399 599.4V328.6L279.699 612.3V701.8Z" fill="white"/>
<path d="M529.998 734.499L563.398 701.099V639.399L468.398 734.499H529.998Z" fill="white"/>
</g>
<path d="M248 521.5C247.5 520.9 247.1 520.4 246.4 519.8C244.6 518.3 243.9 515.7 243.4 513.5C242.8 510.8 242.4 508 241.4 505.4C241.2 505 241 504.6 240.7 504.3C240.4 504.1 240.1 504 239.8 503.9C238.4 503.4 237.2 502.8 235.6 502.8C234.4 502.866 233.2 503.033 232 503.3C230 503.7 227.3 504.7 226.7 507C226.567 507.2 226.467 507.433 226.4 507.7C226.3 511.4 227.6 515 228.1 518.6C228.6 521.8 227.8 524.9 227.7 528.1C227.7 531.2 228 534.4 228.8 537.5C229.2 539.1 230 541.8 231.9 542.2C232.6 542.4 233.2 542.1 233.5 541.6C235 544.1 236.9 545.2 238.9 543.3C239.5 544.2 240.2 544.9 241.5 545C242.5 545.1 243.4 544.6 243.9 543.7C244.9 544.6 246.1 545 247.2 544.3C249 543.2 248.5 540.6 248.1 538.9C247.3 535.4 244.4 531.7 244.5 528.1C246.8 529.1 252 529.7 251.5 526C251.2 524.2 249.1 522.8 248 521.5Z" fill="#F4CBA2"/>
<path d="M476.3 369.399C476.1 369.199 475.934 369.033 475.8 368.899C475.4 368.299 475 367.799 474.6 367.299C473.5 365.999 472.1 365.499 470.5 365.399C468.8 365.399 467.2 365.799 465.8 366.599C464.2 367.499 462.9 368.899 461.4 369.899C460.5 370.599 459.1 371.199 458.5 372.299C457.2 374.499 459.3 376.599 461.2 377.299C464.3 378.399 467 377.299 469.9 377.299C471.2 378.199 472.7 377.199 472.9 375.899C474.3 376.199 475.4 375.399 476.6 374.699C477 374.499 477.367 374.266 477.7 373.999C478 373.799 478.4 373.599 478.6 373.299C478.7 372.999 478.7 372.599 478.6 372.299C478.3 371.899 478 371.499 477.7 371.099C477.2 370.499 476.8 369.999 476.3 369.399Z" fill="#EDBB8E"/>
<path d="M469.9 370.4C470.8 368.5 473.4 368.6 475.1 368.4C477.366 368.133 479.633 367.766 481.9 367.3C483.5 367 485.5 366.9 486.4 365.4C486.6 365 486.7 364.6 486.5 364.2C486 362.6 483.7 362.5 482.4 362.7C480.2 362.966 478 363.233 475.8 363.5C470.2 364.2 464.7 365.5 459.2 366.6C458.666 366.733 458.133 366.866 457.6 367C454.8 367.6 452 368.133 449.2 368.6C446.2 369.1 443.2 369.7 440.3 370.6C438.3 371.2 435.2 371.8 434.2 373.8C433.1 376 434.3 382.5 437.5 382.1C437.566 382.166 437.7 382.233 437.9 382.3C443 383.3 448.1 381.6 453.1 380.6C454.4 380.4 455.9 379.9 457.1 380.4C457.6 380.6 458.1 380.8 458.5 381.1C459.4 381.7 460.7 382.2 461.8 382.1C462.8 382.1 463.7 381.7 464.6 381.3C466.3 380.7 468.1 380.3 469.8 380.1C470.8 380 471.8 380 472.7 379.7C474.2 379.4 475.5 378.6 476.5 377.6C476.9 377 477.3 376.6 477.4 375.9C477.4 375.3 477.3 374.6 476.5 374.6C475 374.7 473.2 375.2 471.7 374.8C469.8 374.4 469.3 372.3 469.8 370.6C469.866 370.533 469.9 370.466 469.9 370.4Z" fill="#F4CBA2"/>
<path d="M325.9 243.3C324.6 240.7 322.501 239.4 319.701 240.4C318.301 240.8 317 241.4 315.6 242.1C319.6 236 321.9 227.3 314.1 225.1C310 224 306.501 226.7 304.201 229.8C302.301 232.2 300.4 234.5 298.4 236.5C297.9 234.6 297.2 232.3 295 231.9C291.7 231.2 288.401 234.5 285.701 236C283.201 237.2 280.9 238.7 278.5 240C275.6 241.5 272.5 243.2 271 246.2C270.6 247.2 271.1 247.1 270 247.1C267.5 247.2 265.5 246.8 263.3 248.5C259.6 251.3 258.8 256.7 258.6 261C258.2 271.6 260.601 282.5 263.201 292.7C263.801 295.2 264.3 297.6 265 300C265.9 303.4 268.3 306.1 270.9 308.3C273.1 310.2 277.1 312.8 280.1 311.7C282.8 310.7 285.1 308.3 286.8 306C290.6 301 292.7 295 294.8 289.2C295 288.467 295.234 287.733 295.5 287C295.9 285.9 295.4 285 294.6 284.6C294.9 283.3 295.201 282 295.701 280.8C296.701 278 298.2 275.4 300 273.1C300.2 272.967 300.4 272.833 300.6 272.7C302.3 271 303.8 269.1 305.6 267.6C308 265.6 310.9 264.7 313.5 263.3C316.5 261.7 321.6 259.3 320 255.2C324.6 252.6 328.5 248 325.9 243.3Z" fill="#424060"/>
<path d="M311.801 734.7C311.801 734.9 312.601 744.1 312.601 744.1H335.701V732.7L311.801 734.7Z" fill="#F4CBA2"/>
<path d="M254.099 732.8L252.899 744.1H229.699L231.199 733L254.099 732.8Z" fill="#F4CBA2"/>
<path d="M315.301 504.9H269.701H251.301L229.801 735.8H254.401L291.701 594.2L299.501 625.8L311.001 735.8H336.901V504.9H315.301Z" fill="#55517A"/>
<path d="M276.3 512.4C275.2 512.2 274.1 512.8 273.8 513.8C269.4 529.2 253.4 534.9 248.4 536.4L248 540.7C251 539.9 272.1 534.4 277.6 514.9C277.9 513.9 277.3 512.7 276.3 512.4Z" fill="#424060"/>
<path d="M336.901 526.6C331.401 523 325.701 517.6 323.301 509.3C323.001 508.3 321.901 507.6 320.901 507.9C319.801 508.2 319.201 509.4 319.501 510.4C322.501 521 330.101 527.5 336.901 531.3V526.6Z" fill="#424060"/>
<path d="M298.8 558.7C298.734 558.7 298.7 558.7 298.7 558.7C298.1 558.6 297.7 558.1 297.8 557.6C297.8 557.4 300.4 535.9 300.4 511.1C300.4 510.6 300.8 510.1 301.4 510.1C302 510.1 302.4 510.6 302.4 511.1C302.4 536 299.8 557.6 299.8 557.8C299.7 558.3 299.3 558.7 298.8 558.7Z" fill="#424060"/>
<path d="M300.5 539.6C300 539.6 299.6 539.3 299.5 538.9C299.3 538.4 299.6 537.8 300.1 537.7C300.3 537.6 303.8 536.3 304 530C304.3 522.7 304.6 513 304.6 513H306.6C306.6 513 306.3 522.8 306 530C305.7 537.9 301 539.5 300.8 539.6C300.667 539.6 300.567 539.6 300.5 539.6Z" fill="#424060"/>
<path d="M310.999 735.8C310.999 735.8 336.699 735.8 336.799 735.8C329.699 735.8 326.099 728.1 323.699 722.6C310.499 692.4 315.799 659.3 310.599 627.7C307.699 610.5 303.699 593.5 301.599 576.1C301.499 575.4 300.599 575 300.099 575.7C296.199 581.6 293.499 587.6 291.699 594.2L299.499 625.8L310.999 735.8Z" fill="#424060"/>
<path d="M336.9 342L385.2 377L447.5 366.1C447.5 366.1 452.6 373.4 449.9 385.2C449.9 385.2 408.2 398.2 389.7 405.7C371.2 413.2 333.5 392.2 333.5 392.2L336.9 342Z" fill="#89D6CE"/>
<path d="M450.6 380C432.4 382.9 415 390.9 397.4 395.6C385.7 398.7 372.5 397.2 362.3 390.4C361.9 390.133 361.533 389.866 361.2 389.6C357.9 387.3 355 384.5 351.8 382.2C348.4 379.7 344.6 378 341.2 375.6C340.8 375.333 340.4 375.066 340 374.8C338.6 373.7 336.7 372.5 334.8 372.6C334.4 373.6 334.7 375.1 334.6 376.2C334.267 381.533 333.9 386.866 333.5 392.2C333.5 392.2 371.2 413.2 389.7 405.7C408.2 398.2 449.9 385.2 449.9 385.2C450.3 383.4 450.5 381.6 450.6 380Z" fill="#89D6CE"/>
<path d="M336.901 342C279.201 313.7 240.501 347.4 240.501 347.4C240.501 347.4 216.101 415.1 214.801 430.7L226.501 517.4C226.501 517.4 230.301 519.2 236.001 518.1C241.901 517.1 245.201 514.8 245.201 514.8L241.501 439L249.601 415.5L253.201 442.5L248.801 511.8C248.801 511.8 268.301 516.6 294.701 516.6C319.501 516.6 339.501 511.8 339.501 511.8C339.501 511.8 340.301 447.8 342.101 414.3C343.901 380.8 336.901 342 336.901 342Z" fill="#89D6CE"/>
<path d="M303.6 331.5C303.267 331.3 302.967 331.033 302.7 330.7C302.1 330.1 301.7 329.3 301 328.7C300.4 328.2 299.6 327.7 298.8 327.5C297.7 327.1 296.5 327.3 295.3 327.2C294 327.2 292.6 327 291.2 327C289.667 327 288.167 327 286.7 327C284.7 327 282.9 327.2 281.2 328.2C279.6 329.1 278.3 330.5 277 331.8C279.6 341.9 299.7 337.6 302.4 335.7C305.3 333.7 304 331.8 303.6 331.5Z" fill="#89D6CE"/>
<path d="M294.701 516.6C319.501 516.6 339.501 511.8 339.501 511.8C339.501 511.8 339.601 509.9 339.601 506.7C329.001 507.9 318.401 509 307.501 508.9C294.801 508.9 263.201 512.4 260.301 496.6C259.001 490 260.701 482.1 260.701 475.4C260.701 467.8 260.501 460.2 260.101 452.7C259.801 448 259.001 443.3 258.201 438.7C257.201 433.8 256.201 429 255.201 424.2C254.734 421.8 254.334 419.4 254.001 417C253.734 415.467 253.534 413.967 253.401 412.5C253.334 411.767 253.267 411.034 253.201 410.3C253.101 409.7 253.201 409 252.801 408.5C252.734 408.434 252.667 408.4 252.601 408.4C252.601 408.4 252.501 408.5 252.401 408.5C250.801 410.7 249.901 413.6 249.301 416.3L249.601 415.5L253.201 442.5L248.801 511.8C248.801 511.8 268.301 516.6 294.701 516.6Z" fill="#89D6CE"/>
<path d="M361.8 747.9C361.266 747.166 360.666 746.533 360 746C357.1 743.7 353.8 742.2 350.4 741.1C346.8 739.9 343.1 738.9 339.4 738.2C338.8 738.066 338.166 737.966 337.5 737.9C337.1 737.8 336.5 737.6 336.1 737.6C335.7 737.7 335.4 737.9 335 738.1C334.2 738.6 333.3 739.1 332.4 739.6C330.1 741 327.5 741.8 324.9 742.1C322.833 742.433 320.8 742.5 318.8 742.3C317 742.2 315.1 741.9 313.6 740.6C313.2 740.3 310.8 737.8 310.7 739.4C310.2 744.9 310.8 750.3 311.2 755.7C311.4 758.2 313.1 758.3 315.3 758.4C327.6 758.7 340 758.8 352.3 759C354.6 759 356.9 759.2 359.2 759C361.1 758.9 363.4 757.8 364 755.5C364.8 752.6 363.6 749.9 361.8 747.9Z" fill="#BAD7FF"/>
<path d="M311.1 754.7C311.166 755.034 311.2 755.367 311.2 755.7C311.4 758.2 313.1 758.3 315.3 758.4C327.6 758.7 340 758.8 352.3 759C354.6 759 356.9 759.2 359.2 759C361.1 758.9 363.4 757.8 364 755.5L311.1 754.7Z" fill="white"/>
<path d="M203.8 755.5C204.4 757.8 206.6 758.9 208.4 759C210.6 759.2 212.8 759 215 759C226.8 758.8 238.6 758.7 250.4 758.4C252.5 758.3 254.1 758.2 254.3 755.7C254.6 750.3 255.2 744.9 254.8 739.4C254.7 737.8 252.3 740.3 251.9 740.6C250.5 741.9 248.7 742.2 247 742.3C245.067 742.5 243.133 742.433 241.2 742.1C238.7 741.8 236.3 741 234 739.6C233.1 739.1 232.3 738.6 231.5 738.1C231.2 737.9 230.9 737.7 230.5 737.6C230.1 737.6 229.5 737.8 229.1 737.9C228.5 737.966 227.9 738.066 227.3 738.2C223.8 738.9 220.3 739.9 216.8 741.1C213.6 742.2 210.4 743.7 207.7 746C207.033 746.533 206.433 747.166 205.9 747.9C204.2 749.9 203.1 752.6 203.8 755.5Z" fill="#BAD7FF"/>
<path d="M254.301 754.7C254.301 755.034 254.301 755.367 254.301 755.7C254.101 758.2 252.501 758.3 250.401 758.4C238.601 758.7 226.801 758.8 215.001 759C212.801 759 210.601 759.2 208.401 759C206.601 758.9 204.401 757.8 203.801 755.5L254.301 754.7Z" fill="white"/>
<path d="M318.901 299.1C317.901 290.9 317.801 281.7 315.901 273.7C315.101 270.3 313.301 263.1 309.801 260.7C305.601 257.8 292.701 260.3 287.901 260.5C283.901 260.7 277.601 259.9 274.001 262.3C269.201 265.4 268.401 274.2 267.201 280.1C264.201 277 258.501 279.2 258.201 284.2C258.001 287.6 259.801 291.5 262.501 293.9C263.201 294.5 263.901 295 264.801 295.3C265.401 295.6 266.901 295.5 267.401 295.8C267.401 295.8 267.401 299.2 267.601 301.1C268.701 308.6 271.001 314.7 276.301 320.4C276.801 320.9 279.501 322.9 279.501 322.9C280.001 324.7 280.101 326.6 280.101 328.5C280.001 329.9 279.601 331.9 280.401 333.2C281.101 334.2 284.501 334.3 285.801 334.4C289.901 334.9 294.201 334.5 298.301 334C299.301 333.8 300.901 333.8 301.501 332.8C302.001 331.9 300.201 323.7 300.601 323.6C307.201 322.4 313.301 319.6 316.601 314.5C319.701 309.8 319.601 304.4 318.901 299.1Z" fill="#F4CBA2"/>
<path d="M315.401 316.1C308.301 317.6 301.201 319 294.001 317.4C283.401 315 278.901 307.5 277.101 297.4C275.401 287.3 268.701 265.9 281.501 260.6C281.701 260.6 281.901 260.567 282.101 260.5C279.101 260.6 276.101 260.9 274.001 262.3C269.201 265.4 268.401 274.2 267.201 280.1C264.201 277 258.501 279.2 258.201 284.2C258.001 287.6 259.801 291.5 262.501 293.9C263.201 294.5 263.901 295 264.801 295.3C265.401 295.6 266.901 295.5 267.401 295.8C267.401 295.8 267.401 299.2 267.601 301.1C268.701 308.6 271.001 314.7 276.301 320.4C276.801 320.9 279.501 322.9 279.501 322.9C280.001 324.7 280.101 326.6 280.101 328.5C280.001 329.9 279.601 331.9 280.401 333.2C281.101 334.2 284.501 334.3 285.801 334.4C289.901 334.9 294.201 334.5 298.301 334C299.301 333.8 300.901 333.8 301.501 332.8C302.001 331.9 300.201 323.7 300.601 323.6C306.501 322.6 311.901 320.2 315.401 316.1Z" fill="#EDBB8E"/>
<path d="M300.699 294.7C291.399 295.4 285.799 301.7 282.099 310C275.299 307.3 273.799 297.9 272.099 291.5C270.499 285.6 268.399 279.4 267.799 273.3C267.699 272.2 266.199 272.2 266.199 273.3C266.299 275 266.499 276.8 266.799 278.6C266.799 278.7 266.799 278.7 266.799 278.8C267.599 294.9 263.099 318.2 282.299 323.6C291.299 326 301.499 325.8 310.199 321.8C316.699 318.8 319.299 311.4 319.299 304.6C319.299 304.6 309.299 294 300.699 294.7Z" fill="#424060"/>
<path d="M308.6 304.5C305.8 304.3 302.9 304.4 300.1 304.7C297.8 304.9 295.3 304.9 293.2 306C292.7 306.3 292.4 306.8 292.5 307.4C293.1 311.6 295.6 315.5 300.3 315.4C302.9 315.3 305.6 314.6 307.3 312.5C309 310.4 309.5 307.3 309 304.7C309 304.633 308.966 304.6 308.9 304.6C308.833 304.533 308.766 304.5 308.7 304.5C308.7 304.5 308.666 304.5 308.6 304.5Z" fill="#F4CBA2"/>
<path fill-rule="evenodd" clip-rule="evenodd" d="M235.7 246.799C235.7 281.599 207.3 309.899 172.6 309.899C137.8 309.899 109.4 281.599 109.4 246.799C109.4 211.999 137.8 183.699 172.6 183.699C207.3 183.699 235.7 211.999 235.7 246.799ZM231.4 246.799C231.4 214.299 205 187.899 172.6 187.899C140.1 187.899 113.7 214.299 113.7 246.799C113.7 279.299 140.1 305.699 172.6 305.699C205 305.699 231.4 279.299 231.4 246.799Z" fill="#BAD7FF"/>
<path d="M172.6 202.6C175 202.6 177.1 200.5 177.1 198.1C177.1 195.6 175 193.6 172.6 193.6C170.1 193.6 168 195.6 168 198.1C168 200.5 170.1 202.6 172.6 202.6Z" fill="#BAD7FF"/>
<path d="M172.6 290.999C170.1 290.999 168 292.999 168 295.499C168 297.999 170.1 299.999 172.6 299.999C175 299.999 177.1 297.999 177.1 295.499C177.1 292.999 175 290.999 172.6 290.999Z" fill="#BAD7FF"/>
<path d="M221.301 242.299C218.801 242.299 216.801 244.299 216.801 246.799C216.801 249.299 218.801 251.299 221.301 251.299C223.801 251.299 225.801 249.299 225.801 246.799C225.801 244.299 223.801 242.299 221.301 242.299Z" fill="#BAD7FF"/>
<path d="M123.801 242.299C121.301 242.299 119.301 244.299 119.301 246.799C119.301 249.299 121.301 251.299 123.801 251.299C126.301 251.299 128.301 249.299 128.301 246.799C128.301 244.299 126.301 242.299 123.801 242.299Z" fill="#BAD7FF"/>
<path d="M198.401 243.499H175.801V209.499C175.801 207.699 174.401 206.199 172.601 206.199C170.701 206.199 169.301 207.699 169.301 209.499V246.799C169.301 248.599 170.701 250.099 172.601 250.099H198.401C200.201 250.099 201.701 248.599 201.701 246.799C201.701 244.999 200.201 243.499 198.401 243.499Z" fill="#BAD7FF"/>
<path fill-rule="evenodd" clip-rule="evenodd" d="M601.3 146.299C600.1 148.099 597.5 148.099 596.4 146.299L574.3 111.699C571.1 106.999 569.1 101.199 569.1 94.9994C569.1 77.8994 583.6 64.1994 600.9 65.3994C615.5 66.3994 627.3 78.0994 628.4 92.5994C629 99.6994 627 106.399 623.4 111.699L601.3 146.299ZM577.1 94.9994C577.1 106.999 586.8 116.799 598.9 116.799C610.9 116.799 620.6 106.999 620.6 94.9994C620.6 82.9994 610.9 73.2994 598.9 73.2994C586.8 73.2994 577.1 82.9994 577.1 94.9994Z" fill="#BAD7FF"/>
</svg>
