<svg width="296" height="236" viewBox="0 0 296 236" fill="none" xmlns="http://www.w3.org/2000/svg">
<path d="M292.41 233.33C296.8 208.85 300.99 153.9 267.34 96C267.34 96 249.12 58.14 194.23 68.4C139.34 78.66 133.34 148 106.67 160C80 172 45.34 164.67 26.67 192.67C16.31 208.21 14.58 223.13 15.09 233.34H292.41V233.33Z" fill="#EBEBEB"/>
<path d="M150.67 232.67H148.96C148.79 233.1 148.67 233.34 148.67 233.34L150.67 232.67Z" fill="#75E9D6"/>
<path d="M201.24 111.73H145.41C143.28 111.73 141.33 110.54 140.35 108.65L127.47 83.75C126.76 82.38 127.76 80.74 129.3 80.74H186.55C188.68 80.74 190.63 81.93 191.61 83.82L203.83 107.45C204.85 109.4 203.44 111.73 201.24 111.73Z" fill="url(#paint0_linear_1_80)"/>
<path opacity="0.42" d="M198.91 115.39H143.08C140.95 115.39 139 114.2 138.02 112.31L125.14 87.41C124.43 86.04 125.43 84.4 126.97 84.4H184.22C186.35 84.4 188.3 85.59 189.28 87.48L201.5 111.11C202.52 113.07 201.1 115.39 198.91 115.39Z" fill="url(#paint1_linear_1_80)"/>
<path opacity="0.46" d="M173.82 100.29H146.9C145.88 100.29 144.95 99.72 144.48 98.82L138.34 86.94C138 86.28 138.48 85.5 139.21 85.5H166.53C167.55 85.5 168.48 86.07 168.95 86.97L174.91 98.5C175.33 99.32 174.73 100.29 173.82 100.29Z" fill="#E7E8FA"/>
<path d="M174.98 98.1C174.98 98.1 170.08 95.87 169.1 95.25C168.12 94.63 164.91 90.8 164.11 90.35C163.31 89.9 162.24 89.73 161.97 89.82C161.7 89.91 159.65 89.73 159.39 89.82C159.12 89.91 156.36 89.46 156.01 89.55C155.65 89.64 154.41 89.1 154.32 89.55C154.23 90 154.23 90.26 155.12 90.53C156.01 90.8 158.5 91.24 158.5 91.24C158.5 91.24 157.97 91.33 157.52 91.77C157.07 92.22 156.54 92.84 156.54 93.19C156.54 93.54 157.07 94.7 157.25 95.33C157.43 95.95 158.59 96.75 159.03 97.02C159.48 97.29 159.56 96.66 159.39 96.13C159.21 95.6 158.77 95.06 158.77 95.06C158.77 95.06 159.13 95.77 159.84 96.31C160.55 96.84 162.16 97.38 162.16 97.38L165.72 98.18C165.72 98.18 167.41 99.69 169.01 100.76C170.61 101.83 172.66 103.16 172.66 103.16L174.98 98.1Z" fill="#FB7C5C"/>
<path d="M235.64 81.28C235.64 81.28 238.37 83.03 240.03 88.49C241.69 93.95 243.35 98.7 243.59 100.13C243.59 101.55 232.67 106.07 228.87 104.4C225.07 102.74 228.4 81.9 235.64 81.28Z" fill="#FFD64B"/>
<path d="M239.56 96.81C238.67 94.86 238.19 90.8 237.99 88.86C237.92 88.2 237.89 87.78 237.89 87.78L231.72 88.73C231.14 88.92 229.78 90.1 228.37 91.42C226.85 97.22 226.85 103.52 228.87 104.4C231.68 105.63 238.4 103.48 241.7 101.7C241.09 99.99 240.21 98.25 239.56 96.81Z" fill="#FFB46D"/>
<path d="M227.51 218.84C227.51 218.84 228.56 222.19 228.14 223.86C227.72 225.53 225.21 226.58 226.89 227.21C228.56 227.84 233.37 226.79 235.26 225.33C236.72 223.87 234.42 223.03 234.01 221.98C233.59 220.93 233.17 216.33 233.17 216.33L227.51 218.84Z" fill="#FB7C5C"/>
<path d="M228.21 222.43C229.39 221.74 230.94 221.16 231.03 222.9C231.11 224.5 230.53 226.14 229.33 227.32C228.31 227.43 227.42 227.41 226.87 227.2C225.2 226.57 227.71 225.53 228.12 223.85C228.23 223.46 228.25 222.96 228.21 222.43Z" fill="#FBA181"/>
<path d="M216.62 232.53C216.62 232.53 216.18 233.09 216.84 233.98C217.51 234.87 227.84 234.98 230.29 234.42C232.74 233.86 237.4 232.2 238.07 230.86C238.18 229.41 236.85 227.97 236.85 227.97L216.62 232.53Z" fill="#E1EAFB"/>
<path d="M237.28 229.45C236.71 230.78 233.02 232.46 230.31 233.22H216.69C216.24 232.69 216.06 232.08 216.79 231.96C218.05 231.96 222.44 230.08 223.69 229.24C224.94 228.4 224.94 226.31 226.62 225.68C233.1 226.93 235.4 223.59 235.4 223.59C236.45 225.26 236.24 226.1 236.24 226.1C236.24 226.1 237.91 227.99 237.28 229.45Z" fill="#025DA6"/>
<path d="M230.31 233.23H227.22C227.66 232.94 228.08 232.61 228.44 232.23C231.11 229.25 234.71 228.31 236.75 228.62C237.03 228.66 237.24 228.74 237.41 228.84C237.4 229.05 237.36 229.26 237.28 229.46C236.71 230.78 233.02 232.46 230.31 233.23Z" fill="#023C5D"/>
<path d="M229.99 140.73C229.99 140.73 229.69 151.1 228.21 156.74C226.73 162.37 225.84 170.08 226.43 176.9C227.02 183.72 229.39 189.05 229.69 194.09C229.99 199.13 234.36 216.91 234.06 218.69C233.76 220.17 229.32 220.76 226.65 219.88C225.17 218.69 216.65 191.13 213.68 184.9C210.72 178.68 211.9 173.34 211.61 169.78C211.31 166.22 210.13 140.44 210.13 140.44C210.13 140.44 223.47 136.28 229.99 140.73Z" fill="#721930"/>
<path d="M215.76 167.85C216.65 176.74 220.65 175.85 219.76 182.08C218.87 188.3 218.87 189.64 221.98 196.31C224.71 202.16 229.72 213.95 229.34 220.29C228.39 220.27 227.44 220.14 226.64 219.88C225.16 218.69 216.64 191.13 213.67 184.9C210.71 178.68 211.89 173.34 211.6 169.78C211.3 166.22 210.12 140.44 210.12 140.44C210.12 140.44 210.28 140.39 210.55 140.31L217.09 144.29C217.1 144.28 214.87 158.95 215.76 167.85Z" fill="#C05275"/>
<path d="M175.86 226.18C175.86 226.18 177.64 224.85 178.35 223.61C179.06 222.36 179.6 217.91 180.13 217.91C180.66 217.91 186.18 220.05 186.18 220.05L184.22 223.08L184.93 226.11C184.93 226.11 182.44 228.07 180.66 228.07C178.88 228.07 175.86 226.18 175.86 226.18Z" fill="#FB7C5C"/>
<path d="M182.97 218.83C181.65 218.35 180.37 217.9 180.13 217.9C179.6 217.9 179.06 222.35 178.35 223.6C177.64 224.85 175.86 226.17 175.86 226.17C175.86 226.17 178.04 227.52 179.78 227.93C180.01 227.67 180.2 227.41 180.31 227.16C181.14 225.26 180.07 223 180.67 221.82C181.12 220.92 182.39 219.48 182.97 218.83Z" fill="#FBA181"/>
<path d="M165.87 233.03C165.87 233.03 165.43 233.59 166.09 234.48C166.76 235.37 177.09 235.48 179.54 234.92C181.99 234.36 186.65 232.7 187.32 231.36C187.43 229.91 186.1 228.47 186.1 228.47L165.87 233.03Z" fill="#E1EAFB"/>
<path d="M186.52 229.94C185.95 231.27 182.26 232.95 179.55 233.71H165.93C165.48 233.18 165.3 232.57 166.03 232.45C167.29 232.45 171.68 230.57 172.93 229.73C174.18 228.89 174.18 226.8 175.86 226.17C182.34 227.42 184.64 224.08 184.64 224.08C185.69 225.75 185.48 226.59 185.48 226.59C185.48 226.59 187.15 228.48 186.52 229.94Z" fill="#025DA6"/>
<path d="M179.55 233.72H176.46C176.9 233.43 177.32 233.1 177.68 232.72C180.35 229.74 183.95 228.8 185.99 229.11C186.27 229.15 186.48 229.23 186.65 229.33C186.64 229.54 186.6 229.75 186.52 229.95C185.95 231.28 182.26 232.95 179.55 233.72Z" fill="#023C5D"/>
<path d="M196.2 134.5C196.2 134.5 192.42 148.09 189.93 157.36C187.44 166.62 187.08 178.02 184.59 185.85C182.1 193.69 180.14 212.56 179.43 215.06C178.72 217.55 178.72 219.33 180.85 219.69C182.99 220.05 183.7 221.47 186.19 220.05C188.68 218.63 192.78 205.8 195.98 194.76C199.19 183.72 200.61 180.51 203.1 173.75C205.59 166.98 209.51 162.71 213.07 156.65C216.63 150.6 219.48 141.33 219.48 141.33L196.2 134.5Z" fill="#721930"/>
<path d="M196.2 134.5C196.2 134.5 192.42 148.09 189.93 157.36C187.44 166.62 187.08 178.02 184.59 185.85C182.1 193.69 180.14 212.56 179.43 215.06C178.72 217.55 178.72 219.33 180.85 219.69C181.07 219.73 181.28 219.78 181.47 219.83C182.73 215.53 182.16 214.29 183.88 209.71C186.02 204.01 187.09 196.18 187.44 190.48C187.8 184.78 191.36 181.22 193.14 174.81C194.92 168.4 193.85 166.26 193.5 158.07C193.2 151.17 199.22 139.45 201.13 135.94L196.2 134.5Z" fill="#C05275"/>
<path d="M212.14 63.66C212.14 63.66 210.24 66.77 210.52 68.13C210.79 69.48 212.96 69.08 212.96 69.08L212.14 63.66Z" fill="#FBA181"/>
<path d="M213.31 54.49C213.31 54.49 211.64 56.92 211.64 59.2C211.64 61.48 210.73 72.71 212.25 74.08C213.77 75.45 219.84 73.93 219.84 73.93C219.84 73.93 222.72 73.17 223.94 68.92C225.15 64.67 221.51 57.23 221.51 57.23L213.31 54.49Z" fill="#FB7C5C"/>
<path d="M216.93 73.34C216.93 73.34 217.62 77.04 215.56 80.33C215.56 80.33 222.28 79.78 226.12 80.19C226.12 80.19 225.3 73.75 225.43 71.83C225.57 69.91 219.4 71.28 216.93 73.34Z" fill="#FB7C5C"/>
<path d="M217.74 65.73C217.74 65.73 217.92 62.92 219.24 63.62C220.56 64.32 220.21 68.72 218.71 69.07C217.21 69.42 217.56 66.35 217.74 65.73Z" fill="#FBA181"/>
<path d="M227.58 76.44C224.42 76.07 218.32 75.62 214.93 77.2L212.42 79.4L230.23 80.18L229.96 78.69C229.74 77.5 228.78 76.58 227.58 76.44Z" fill="#6EC1E4"/>
<path d="M200.5 95.09C200.5 90.38 201.76 84.42 205.21 81.6C208.66 78.78 216.85 78.78 216.85 78.78L230.62 79.41L235.64 81.29C235.64 81.29 239.09 83.8 238.46 88.82C238.46 88.82 237.99 91.38 234.88 100.72C231.77 110.06 231.85 114.77 230.51 117.44C229.18 120.11 231.32 127.4 232.21 131.4C233.1 135.4 231.32 142.96 229.1 145.63C226.88 148.3 214.43 151.41 206.42 146.07C198.42 140.73 196.64 137.18 196.19 134.51C195.75 131.84 202.38 116.22 202.38 109.99C202.39 103.76 200.5 95.09 200.5 95.09Z" fill="#6EC1E4"/>
<path d="M226.12 147.42C221.38 149.27 212.59 150.17 206.42 146.06C198.42 140.72 196.64 137.17 196.19 134.5C195.75 131.83 202.38 116.21 202.38 109.98C202.38 103.76 200.49 95.08 200.49 95.08C200.49 91.32 201.3 86.76 203.38 83.64C206.1 83.59 209.09 84.03 213.09 82.92C221.09 80.7 230.43 81.14 233.54 86.92C236.65 92.7 231.76 102.48 229.54 111.37C227.32 120.26 229.54 121.15 229.98 134.49C230.19 140.58 228.27 144.71 226.12 147.42Z" fill="#54ABD0"/>
<path d="M211.04 54.02C211.04 54.02 208.84 56.87 213.65 61.14C218.02 65.53 214.5 70.26 218.24 76.67C221.98 83.08 223.4 81.66 223.05 90.92C222.69 100.18 223.23 105.52 229.82 108.73C236.41 111.94 245.14 108.37 246.56 99.65C247.98 90.92 241.04 85.22 239.79 77.57C238.54 69.91 241.75 65.82 238.01 61.19C234.27 56.56 232.85 57.63 231.24 53C229.64 48.37 222.69 47.48 218.24 48.55C213.79 49.61 211.22 52.96 211.04 54.02Z" fill="#022347"/>
<path d="M221.11 48.16C223.58 48.33 227.94 49.13 229.11 52.64C230.77 57.63 227.92 59.29 232.43 62.61C236.94 65.93 237.65 65.22 236.7 72.11C235.75 79 235.99 80.42 238.84 84.93C241.69 89.44 243.35 98.94 239.55 105.35C238.63 106.9 237.35 108.42 235.93 109.84C240.9 109.39 245.54 105.81 246.55 99.65C247.97 90.92 241.03 85.22 239.78 77.57C238.53 69.91 241.74 65.82 238 61.19C234.26 56.56 232.84 57.63 231.23 53C229.96 49.28 225.23 47.97 221.11 48.16Z" fill="#023C6F"/>
<path d="M206.53 80.86C206.53 80.86 202.97 81.33 200.12 87.51C197.27 93.68 191.57 103.18 189.67 103.66C187.77 104.14 188.01 102.47 181.36 99.15C174.71 95.83 172.81 95.35 172.81 95.35C172.81 95.35 169.25 97.25 169.49 101.52C169.96 103.42 170.2 104.13 170.2 104.13C170.2 104.13 178.27 108.4 181.36 111.02C184.45 113.63 188.72 115.06 191.33 116.01C193.94 116.96 201.07 109.6 202.97 106.99C204.87 104.38 212.71 94.88 213.42 89.89C214.13 84.89 212.94 79.91 206.53 80.86Z" fill="#6EC1E4"/>
<path d="M206.77 87.98C204.16 92.97 201.55 104.13 197.03 108.64C192.52 113.15 191.81 112.91 190.38 112.68C188.96 112.44 186.34 109.36 180.64 106.74C174.94 104.13 173.52 103.65 170.67 101.75C170.27 101.48 169.87 101.24 169.48 101.02C169.48 101.18 169.47 101.35 169.48 101.52C169.95 103.42 170.19 104.13 170.19 104.13C170.19 104.13 178.26 108.4 181.35 111.02C184.44 113.63 188.71 115.06 191.32 116.01C193.93 116.96 201.06 109.6 202.96 106.99C204.86 104.38 212.7 94.88 213.41 89.89C213.78 87.32 213.63 84.77 212.54 83.01C211.42 83.22 208.77 84.15 206.77 87.98Z" fill="#54ABD0"/>
<path d="M169.1 95.25C168.12 94.63 164.91 90.8 164.11 90.35C163.31 89.9 162.24 89.73 161.97 89.82C161.7 89.91 159.65 89.73 159.39 89.82C159.12 89.91 156.36 89.46 156.01 89.55C155.65 89.64 154.41 89.1 154.32 89.55C154.32 89.55 156.66 90.35 159.63 90.47C162.6 90.59 163.31 91.66 164.85 93.08C166.39 94.5 166.75 96.05 168.17 96.76C168.9 97.12 169.78 96.59 170.47 95.98C169.86 95.68 169.35 95.41 169.1 95.25Z" fill="#FBA181"/>
<path d="M178.67 70H86.67C82.99 70 80 67.02 80 63.33V18.66C80 14.98 82.98 11.99 86.67 11.99H178.67C182.35 11.99 185.34 14.97 185.34 18.66V63.33C185.33 67.02 182.35 70 178.67 70Z" fill="white"/>
<path d="M184.67 75H92.67C88.99 75 86 72.02 86 68.33V23.66C86 19.98 88.98 16.99 92.67 16.99H184.67C188.35 16.99 191.34 19.97 191.34 23.66V68.33C191.33 72.02 188.35 75 184.67 75Z" stroke="white" stroke-miterlimit="10"/>
<path d="M89.2 36.07H102.25C102.25 32.58 100.33 29.63 97.68 28.64C99.02 27.94 99.93 26.53 99.93 24.91C99.93 22.58 98.05 20.7 95.72 20.7C93.39 20.7 91.51 22.58 91.51 24.91C91.51 26.53 92.42 27.93 93.76 28.64C91.12 29.64 89.2 32.59 89.2 36.07Z" fill="#D6DEDB"/>
<path d="M89.2 59.32H102.25C102.25 55.83 100.33 52.88 97.68 51.89C99.02 51.19 99.93 49.78 99.93 48.16C99.93 45.83 98.05 43.95 95.72 43.95C93.39 43.95 91.51 45.83 91.51 48.16C91.51 49.78 92.42 51.18 93.76 51.89C91.12 52.89 89.2 55.84 89.2 59.32Z" fill="#D6DEDB"/>
<path d="M112.2 36.07H125.25C125.25 32.58 123.33 29.63 120.68 28.64C122.02 27.94 122.93 26.53 122.93 24.91C122.93 22.58 121.05 20.7 118.72 20.7C116.39 20.7 114.51 22.58 114.51 24.91C114.51 26.53 115.42 27.93 116.76 28.64C114.12 29.64 112.2 32.59 112.2 36.07Z" fill="#FFD64B"/>
<path d="M112.2 59.32H125.25C125.25 55.83 123.33 52.88 120.68 51.89C122.02 51.19 122.93 49.78 122.93 48.16C122.93 45.83 121.05 43.95 118.72 43.95C116.39 43.95 114.51 45.83 114.51 48.16C114.51 49.78 115.42 51.18 116.76 51.89C114.12 52.89 112.2 55.84 112.2 59.32Z" fill="#D6DEDB"/>
<path d="M222.26 29.89H148.15C143.88 29.89 140.41 26.43 140.41 22.15V7.75999C140.41 3.48999 143.87 0.0200043 148.15 0.0200043H222.26C226.53 0.0200043 230 3.47999 230 7.75999V22.15C230 26.42 226.54 29.89 222.26 29.89Z" fill="#FFD64B"/>
<path d="M182.858 12.9837C182.275 12.9837 181.778 12.825 181.368 12.5076C180.958 12.1877 180.644 11.7246 180.427 11.1183C180.211 10.5094 180.102 9.77409 180.102 8.91236C180.102 8.05579 180.211 7.32434 180.427 6.71803C180.647 6.10914 180.961 5.64474 181.372 5.32481C181.784 5.0023 182.28 4.84105 182.858 4.84105C183.436 4.84105 183.93 5.0023 184.34 5.32481C184.753 5.64474 185.068 6.10914 185.284 6.71803C185.504 7.32434 185.613 8.05579 185.613 8.91236C185.613 9.77409 185.505 10.5094 185.288 11.1183C185.071 11.7246 184.758 12.1877 184.348 12.5076C183.937 12.825 183.441 12.9837 182.858 12.9837ZM182.858 12.1323C183.436 12.1323 183.885 11.8536 184.205 11.2963C184.524 10.739 184.684 9.94438 184.684 8.91236C184.684 8.22607 184.611 7.64169 184.464 7.15922C184.319 6.67675 184.11 6.3091 183.837 6.05625C183.566 5.80341 183.24 5.67699 182.858 5.67699C182.285 5.67699 181.837 5.9595 181.515 6.52453C181.192 7.08698 181.031 7.88292 181.031 8.91236C181.031 9.59865 181.103 10.1817 181.248 10.6616C181.392 11.1415 181.6 11.5066 181.871 11.7569C182.144 12.0071 182.473 12.1323 182.858 12.1323ZM187.084 12.8753V12.1787L189.7 9.31485C190.007 8.97944 190.26 8.6879 190.459 8.44021C190.657 8.18995 190.804 7.95516 190.9 7.73586C190.998 7.51398 191.047 7.28177 191.047 7.03925C191.047 6.7606 190.98 6.51937 190.846 6.31555C190.714 6.11172 190.533 5.95434 190.304 5.8434C190.074 5.73246 189.816 5.67699 189.53 5.67699C189.225 5.67699 188.96 5.7402 188.733 5.86662C188.508 5.99046 188.334 6.16461 188.21 6.38908C188.089 6.61354 188.028 6.87671 188.028 7.17857H187.115C187.115 6.71416 187.222 6.30652 187.436 5.95563C187.65 5.60474 187.942 5.33126 188.311 5.13518C188.682 4.93909 189.099 4.84105 189.561 4.84105C190.025 4.84105 190.437 4.93909 190.795 5.13518C191.154 5.33126 191.435 5.59571 191.639 5.92854C191.843 6.26137 191.945 6.6316 191.945 7.03925C191.945 7.33079 191.892 7.61589 191.786 7.89453C191.683 8.1706 191.502 8.47891 191.244 8.81948C190.989 9.15746 190.634 9.57027 190.18 10.0579L188.4 11.962V12.0239H192.084V12.8753H187.084ZM194.363 11.8613C194.173 11.8613 194.009 11.793 193.872 11.6562C193.735 11.5195 193.667 11.3557 193.667 11.1647C193.667 10.9738 193.735 10.81 193.872 10.6732C194.009 10.5365 194.173 10.4681 194.363 10.4681C194.554 10.4681 194.718 10.5365 194.855 10.6732C194.992 10.81 195.06 10.9738 195.06 11.1647C195.06 11.2912 195.028 11.4073 194.963 11.513C194.901 11.6188 194.818 11.704 194.712 11.7685C194.609 11.8304 194.492 11.8613 194.363 11.8613ZM194.363 7.85196C194.173 7.85196 194.009 7.78359 193.872 7.64685C193.735 7.51011 193.667 7.34627 193.667 7.15535C193.667 6.96443 193.735 6.80059 193.872 6.66385C194.009 6.52711 194.173 6.45874 194.363 6.45874C194.554 6.45874 194.718 6.52711 194.855 6.66385C194.992 6.80059 195.06 6.96443 195.06 7.15535C195.06 7.28177 195.028 7.39787 194.963 7.50366C194.901 7.60944 194.818 7.69458 194.712 7.75908C194.609 7.821 194.492 7.85196 194.363 7.85196ZM199.362 12.9837C198.851 12.9837 198.395 12.8959 197.995 12.7205C197.598 12.5451 197.282 12.3012 197.047 11.9891C196.815 11.6743 196.689 11.3092 196.668 10.8938H197.643C197.664 11.1493 197.752 11.3699 197.906 11.5556C198.061 11.7388 198.264 11.8807 198.514 11.9813C198.764 12.0819 199.042 12.1323 199.346 12.1323C199.687 12.1323 199.989 12.0729 200.252 11.9542C200.515 11.8355 200.721 11.6704 200.871 11.4589C201.021 11.2473 201.095 11.0022 201.095 10.7235C201.095 10.432 201.023 10.1753 200.879 9.95341C200.734 9.72894 200.523 9.5535 200.244 9.42708C199.965 9.30066 199.625 9.23744 199.222 9.23744H198.588V8.38603H199.222C199.537 8.38603 199.813 8.32927 200.051 8.21575C200.29 8.10223 200.478 7.94226 200.612 7.73586C200.748 7.52946 200.817 7.28693 200.817 7.00829C200.817 6.73996 200.757 6.50647 200.639 6.30781C200.52 6.10914 200.352 5.95434 200.136 5.8434C199.922 5.73246 199.669 5.67699 199.377 5.67699C199.104 5.67699 198.846 5.7273 198.603 5.82792C198.363 5.92596 198.167 6.06915 198.015 6.2575C197.863 6.44326 197.78 6.66772 197.767 6.93089H196.838C196.854 6.5155 196.979 6.15171 197.214 5.83953C197.449 5.52476 197.756 5.27966 198.135 5.10422C198.517 4.92877 198.936 4.84105 199.393 4.84105C199.883 4.84105 200.303 4.94038 200.654 5.13905C201.005 5.33513 201.275 5.59442 201.463 5.91693C201.651 6.23944 201.746 6.58774 201.746 6.96185C201.746 7.40819 201.628 7.78875 201.393 8.10352C201.161 8.41828 200.845 8.6363 200.445 8.75756V8.81948C200.946 8.90204 201.337 9.11489 201.618 9.45804C201.899 9.7986 202.04 10.2204 202.04 10.7235C202.04 11.1544 201.922 11.5414 201.688 11.8846C201.455 12.2251 201.138 12.4935 200.736 12.6895C200.333 12.8856 199.875 12.9837 199.362 12.9837ZM206.208 12.9837C205.625 12.9837 205.128 12.825 204.718 12.5076C204.308 12.1877 203.994 11.7246 203.777 11.1183C203.561 10.5094 203.452 9.77409 203.452 8.91236C203.452 8.05579 203.561 7.32434 203.777 6.71803C203.997 6.10914 204.311 5.64474 204.722 5.32481C205.134 5.0023 205.63 4.84105 206.208 4.84105C206.786 4.84105 207.28 5.0023 207.69 5.32481C208.103 5.64474 208.418 6.10914 208.634 6.71803C208.854 7.32434 208.963 8.05579 208.963 8.91236C208.963 9.77409 208.855 10.5094 208.638 11.1183C208.421 11.7246 208.108 12.1877 207.698 12.5076C207.288 12.825 206.791 12.9837 206.208 12.9837ZM206.208 12.1323C206.786 12.1323 207.235 11.8536 207.555 11.2963C207.874 10.739 208.034 9.94438 208.034 8.91236C208.034 8.22607 207.961 7.64169 207.814 7.15922C207.669 6.67675 207.46 6.3091 207.187 6.05625C206.916 5.80341 206.59 5.67699 206.208 5.67699C205.635 5.67699 205.187 5.9595 204.865 6.52453C204.542 7.08698 204.381 7.88292 204.381 8.91236C204.381 9.59865 204.453 10.1817 204.598 10.6616C204.742 11.1415 204.95 11.5066 205.221 11.7569C205.494 12.0071 205.823 12.1323 206.208 12.1323ZM210.573 12.8753V4.94941H213.251C213.873 4.94941 214.381 5.06165 214.776 5.28611C215.173 5.50799 215.468 5.80857 215.658 6.18783C215.849 6.5671 215.945 6.99023 215.945 7.45722C215.945 7.9242 215.849 8.34862 215.658 8.73047C215.47 9.11231 215.179 9.41676 214.784 9.6438C214.389 9.86827 213.883 9.9805 213.267 9.9805H211.347V9.12908H213.236C213.662 9.12908 214.003 9.05555 214.261 8.90849C214.519 8.76143 214.706 8.56276 214.823 8.3125C214.941 8.05966 215.001 7.77456 215.001 7.45722C215.001 7.13987 214.941 6.85607 214.823 6.6058C214.706 6.35554 214.518 6.15945 214.258 6.01755C213.997 5.87307 213.651 5.80083 213.22 5.80083H211.533V12.8753H210.573ZM217.491 4.94941H218.636L221.33 11.5285H221.423L224.116 4.94941H225.262V12.8753H224.364V6.85349H224.287L221.81 12.8753H220.943L218.466 6.85349H218.389V12.8753H217.491V4.94941Z" fill="white"/>
<path d="M218.17 18.79C218.17 17.4 217.04 16.27 215.65 16.27C214.26 16.27 213.13 17.4 213.13 18.79C213.13 18.79 213 21.09 215.45 24.46C215.55 24.59 215.75 24.59 215.84 24.46C218.29 21.13 218.17 18.79 218.17 18.79ZM215.65 19.9C215.04 19.9 214.54 19.4 214.54 18.79C214.54 18.18 215.04 17.68 215.65 17.68C216.26 17.68 216.76 18.18 216.76 18.79C216.76 19.41 216.26 19.9 215.65 19.9Z" fill="white"/>
<path d="M206.73 19.8H181.91C181.27 19.8 180.75 19.28 180.75 18.64C180.75 18 181.27 17.48 181.91 17.48H206.73C207.37 17.48 207.89 18 207.89 18.64C207.89 19.28 207.37 19.8 206.73 19.8Z" fill="white"/>
<path d="M193.35 23.87H181.91C181.27 23.87 180.75 23.35 180.75 22.71C180.75 22.07 181.27 21.55 181.91 21.55H193.35C193.99 21.55 194.51 22.07 194.51 22.71C194.51 23.35 193.99 23.87 193.35 23.87Z" fill="white"/>
<path d="M161.17 26.62C167.35 26.62 172.36 21.6101 172.36 15.43C172.36 9.24993 167.35 4.24001 161.17 4.24001C154.99 4.24001 149.98 9.24993 149.98 15.43C149.98 21.6101 154.99 26.62 161.17 26.62Z" fill="url(#paint2_linear_1_80)"/>
<mask id="mask0_1_80" style="mask-type:luminance" maskUnits="userSpaceOnUse" x="149" y="4" width="24" height="23">
<path d="M161.17 26.62C167.35 26.62 172.36 21.6101 172.36 15.43C172.36 9.24993 167.35 4.24001 161.17 4.24001C154.99 4.24001 149.98 9.24993 149.98 15.43C149.98 21.6101 154.99 26.62 161.17 26.62Z" fill="white"/>
</mask>
<g mask="url(#mask0_1_80)">
<path d="M161.3 20.89C164.79 20.89 167.62 18.0604 167.62 14.57C167.62 11.0796 164.79 8.25 161.3 8.25C157.81 8.25 154.98 11.0796 154.98 14.57C154.98 18.0604 157.81 20.89 161.3 20.89Z" fill="#404A69"/>
<path d="M170.19 28.25C169.95 23.47 166 19.68 161.17 19.68C156.34 19.68 152.39 23.48 152.15 28.25H170.19Z" fill="#B15EF2"/>
<path d="M164.1 21.01C164.1 22.63 162.79 23.94 161.17 23.94C159.55 23.94 158.24 22.63 158.24 21.01C158.24 19.39 159.55 18.08 161.17 18.08C162.79 18.08 164.1 19.39 164.1 21.01Z" fill="#FF7657"/>
<path d="M168.37 16.08C168.37 16.86 167.74 17.5 166.95 17.5C166.17 17.5 165.53 16.87 165.53 16.08C165.53 15.29 166.16 14.66 166.95 14.66C167.74 14.66 168.37 15.29 168.37 16.08Z" fill="#FF7657"/>
<path d="M156.58 16.08C156.58 16.86 155.95 17.5 155.16 17.5C154.38 17.5 153.74 16.87 153.74 16.08C153.74 15.29 154.37 14.66 155.16 14.66C155.94 14.66 156.58 15.29 156.58 16.08Z" fill="#FF7657"/>
<path d="M166.75 16.08C166.75 19.17 164.25 21.67 161.16 21.67C158.07 21.67 155.57 19.17 155.57 16.08C155.57 12.99 158.07 10.49 161.16 10.49C164.25 10.48 166.75 12.99 166.75 16.08Z" fill="#FF9677"/>
<path d="M167.07 14.17C166.45 16.01 163.88 16.8 161.35 15.93C158.81 15.07 157.26 12.88 157.89 11.04C158.51 9.19999 161.08 8.40999 163.61 9.27999C166.15 10.14 167.7 12.33 167.07 14.17Z" fill="#404A69"/>
</g>
<path d="M169.76 55.82H139.65C138.2 55.82 137.03 54.64 137.03 53.2V45.9C137.03 44.45 138.21 43.28 139.65 43.28H169.76C171.21 43.28 172.38 44.46 172.38 45.9V53.2C172.39 54.64 171.21 55.82 169.76 55.82Z" fill="url(#paint3_linear_1_80)"/>
<path d="M145.39 51.5413V45.9957H147.329C147.715 45.9957 148.034 46.0625 148.285 46.1961C148.536 46.3279 148.723 46.5057 148.846 46.7295C148.968 46.9516 149.03 47.198 149.03 47.4688C149.03 47.707 148.987 47.9038 148.902 48.0591C148.819 48.2143 148.709 48.3371 148.572 48.4273C148.437 48.5176 148.29 48.5844 148.131 48.6277V48.6819C148.3 48.6927 148.471 48.7523 148.642 48.8606C148.814 48.9689 148.957 49.1241 149.073 49.3263C149.189 49.5285 149.246 49.7758 149.246 50.0683C149.246 50.3463 149.183 50.5963 149.057 50.8183C148.93 51.0404 148.731 51.2164 148.458 51.3463C148.186 51.4763 147.831 51.5413 147.394 51.5413H145.39ZM146.062 50.9456H147.394C147.833 50.9456 148.144 50.8607 148.328 50.6911C148.514 50.5196 148.607 50.312 148.607 50.0683C148.607 49.8805 148.559 49.7072 148.464 49.5484C148.368 49.3877 148.232 49.2595 148.055 49.1638C147.878 49.0664 147.669 49.0176 147.427 49.0176H146.062V50.9456ZM146.062 48.4327H147.307C147.51 48.4327 147.692 48.393 147.854 48.3136C148.019 48.2342 148.149 48.1222 148.244 47.9778C148.342 47.8334 148.391 47.6637 148.391 47.4688C148.391 47.2251 148.306 47.0184 148.136 46.8487C147.966 46.6772 147.697 46.5914 147.329 46.5914H146.062V48.4327ZM155.029 48.7685C155.029 49.3534 154.923 49.8589 154.712 50.2849C154.501 50.7109 154.211 51.0395 153.843 51.2705C153.475 51.5016 153.054 51.6171 152.581 51.6171C152.108 51.6171 151.687 51.5016 151.319 51.2705C150.951 51.0395 150.661 50.7109 150.45 50.2849C150.239 49.8589 150.133 49.3534 150.133 48.7685C150.133 48.1836 150.239 47.6782 150.45 47.2521C150.661 46.8261 150.951 46.4976 151.319 46.2665C151.687 46.0354 152.108 45.9199 152.581 45.9199C153.054 45.9199 153.475 46.0354 153.843 46.2665C154.211 46.4976 154.501 46.8261 154.712 47.2521C154.923 47.6782 155.029 48.1836 155.029 48.7685ZM154.379 48.7685C154.379 48.2883 154.299 47.8831 154.138 47.5527C153.979 47.2223 153.763 46.9723 153.491 46.8026C153.22 46.6329 152.917 46.5481 152.581 46.5481C152.245 46.5481 151.941 46.6329 151.668 46.8026C151.398 46.9723 151.182 47.2223 151.021 47.5527C150.862 47.8831 150.783 48.2883 150.783 48.7685C150.783 49.2487 150.862 49.654 151.021 49.9843C151.182 50.3147 151.398 50.5647 151.668 50.7344C151.941 50.9041 152.245 50.9889 152.581 50.9889C152.917 50.9889 153.22 50.9041 153.491 50.7344C153.763 50.5647 153.979 50.3147 154.138 49.9843C154.299 49.654 154.379 49.2487 154.379 48.7685ZM160.837 48.7685C160.837 49.3534 160.731 49.8589 160.52 50.2849C160.309 50.7109 160.019 51.0395 159.651 51.2705C159.283 51.5016 158.862 51.6171 158.389 51.6171C157.916 51.6171 157.496 51.5016 157.127 51.2705C156.759 51.0395 156.469 50.7109 156.258 50.2849C156.047 49.8589 155.941 49.3534 155.941 48.7685C155.941 48.1836 156.047 47.6782 156.258 47.2521C156.469 46.8261 156.759 46.4976 157.127 46.2665C157.496 46.0354 157.916 45.9199 158.389 45.9199C158.862 45.9199 159.283 46.0354 159.651 46.2665C160.019 46.4976 160.309 46.8261 160.52 47.2521C160.731 47.6782 160.837 48.1836 160.837 48.7685ZM160.187 48.7685C160.187 48.2883 160.107 47.8831 159.946 47.5527C159.787 47.2223 159.572 46.9723 159.299 46.8026C159.028 46.6329 158.725 46.5481 158.389 46.5481C158.053 46.5481 157.749 46.6329 157.477 46.8026C157.206 46.9723 156.99 47.2223 156.83 47.5527C156.671 47.8831 156.591 48.2883 156.591 48.7685C156.591 49.2487 156.671 49.654 156.83 49.9843C156.99 50.3147 157.206 50.5647 157.477 50.7344C157.749 50.9041 158.053 50.9889 158.389 50.9889C158.725 50.9889 159.028 50.9041 159.299 50.7344C159.572 50.5647 159.787 50.3147 159.946 49.9843C160.107 49.654 160.187 49.2487 160.187 48.7685ZM161.966 51.5413V45.9957H162.638V48.7468H162.703L165.194 45.9957H166.071L163.743 48.4977L166.071 51.5413H165.259L163.331 48.9635L162.638 49.7433V51.5413H161.966Z" fill="white"/>
<path d="M30.13 72.48V116.53C30.13 118.67 31.87 120.41 34.01 120.41H109.95C112.09 120.41 113.83 118.67 113.83 116.53V72.48H30.13Z" fill="url(#paint4_linear_1_80)"/>
<path d="M109.95 63.71H34.01C31.87 63.71 30.13 65.45 30.13 67.59V75.44H113.83V67.59C113.83 65.45 112.09 63.71 109.95 63.71Z" fill="#FFD64B"/>
<path d="M50 90.76H41.98C41.38 90.76 40.9 90.27 40.9 89.68V81.66C40.9 81.06 41.39 80.58 41.98 80.58H50C50.6 80.58 51.08 81.07 51.08 81.66V89.68C51.08 90.28 50.59 90.76 50 90.76Z" fill="#C2D6FF"/>
<path d="M62.99 90.76H54.97C54.37 90.76 53.89 90.27 53.89 89.68V81.66C53.89 81.06 54.38 80.58 54.97 80.58H62.99C63.59 80.58 64.07 81.07 64.07 81.66V89.68C64.08 90.28 63.59 90.76 62.99 90.76Z" fill="#A6C7FF"/>
<path d="M75.99 90.76H67.97C67.37 90.76 66.89 90.27 66.89 89.68V81.66C66.89 81.06 67.38 80.58 67.97 80.58H75.99C76.59 80.58 77.07 81.07 77.07 81.66V89.68C77.08 90.28 76.59 90.76 75.99 90.76Z" fill="#C2D6FF"/>
<path d="M88.99 90.76H80.97C80.37 90.76 79.89 90.27 79.89 89.68V81.66C79.89 81.06 80.38 80.58 80.97 80.58H88.99C89.59 80.58 90.07 81.07 90.07 81.66V89.68C90.08 90.28 89.59 90.76 88.99 90.76Z" fill="#C2D6FF"/>
<path d="M101.99 90.76H93.97C93.37 90.76 92.89 90.27 92.89 89.68V81.66C92.89 81.06 93.38 80.58 93.97 80.58H101.99C102.59 80.58 103.07 81.07 103.07 81.66V89.68C103.07 90.28 102.59 90.76 101.99 90.76Z" fill="#C2D6FF"/>
<path d="M50 103.11H41.98C41.38 103.11 40.9 102.62 40.9 102.03V94C40.9 93.4 41.39 92.92 41.98 92.92H50C50.6 92.92 51.08 93.41 51.08 94V102.02C51.08 102.62 50.59 103.11 50 103.11Z" fill="#C2D6FF"/>
<path d="M62.99 103.11H54.97C54.37 103.11 53.89 102.62 53.89 102.03V94C53.89 93.4 54.38 92.92 54.97 92.92H62.99C63.59 92.92 64.07 93.41 64.07 94V102.02C64.08 102.62 63.59 103.11 62.99 103.11Z" fill="#C2D6FF"/>
<path d="M75.99 103.11H67.97C67.37 103.11 66.89 102.62 66.89 102.03V94C66.89 93.4 67.38 92.92 67.97 92.92H75.99C76.59 92.92 77.07 93.41 77.07 94V102.02C77.08 102.62 76.59 103.11 75.99 103.11Z" fill="#C2D6FF"/>
<path d="M88.99 103.11H80.97C80.37 103.11 79.89 102.62 79.89 102.03V94C79.89 93.4 80.38 92.92 80.97 92.92H88.99C89.59 92.92 90.07 93.41 90.07 94V102.02C90.08 102.62 89.59 103.11 88.99 103.11Z" fill="#D4E5FF"/>
<path d="M101.99 103.11H93.97C93.37 103.11 92.89 102.62 92.89 102.03V94C92.89 93.4 93.38 92.92 93.97 92.92H101.99C102.59 92.92 103.07 93.41 103.07 94V102.02C103.07 102.62 102.59 103.11 101.99 103.11Z" fill="#D4E5FF"/>
<path d="M50 115.46H41.98C41.38 115.46 40.9 114.97 40.9 114.38V106.36C40.9 105.76 41.39 105.28 41.98 105.28H50C50.6 105.28 51.08 105.77 51.08 106.36V114.38C51.08 114.97 50.59 115.46 50 115.46Z" fill="#A6C7FF"/>
<path d="M62.99 115.46H54.97C54.37 115.46 53.89 114.97 53.89 114.38V106.36C53.89 105.76 54.38 105.28 54.97 105.28H62.99C63.59 105.28 64.07 105.77 64.07 106.36V114.38C64.08 114.97 63.59 115.46 62.99 115.46Z" fill="#C2D6FF"/>
<path d="M75.99 115.46H67.97C67.37 115.46 66.89 114.97 66.89 114.38V106.36C66.89 105.76 67.38 105.28 67.97 105.28H75.99C76.59 105.28 77.07 105.77 77.07 106.36V114.38C77.08 114.97 76.59 115.46 75.99 115.46Z" fill="#C2D6FF"/>
<path d="M88.99 115.46H80.97C80.37 115.46 79.89 114.97 79.89 114.38V106.36C79.89 105.76 80.38 105.28 80.97 105.28H88.99C89.59 105.28 90.07 105.77 90.07 106.36V114.38C90.08 114.97 89.59 115.46 88.99 115.46Z" fill="url(#paint5_linear_1_80)"/>
<path d="M101.99 115.46H93.97C93.37 115.46 92.89 114.97 92.89 114.38V106.36C92.89 105.76 93.38 105.28 93.97 105.28H101.99C102.59 105.28 103.07 105.77 103.07 106.36V114.38C103.07 114.97 102.59 115.46 101.99 115.46Z" fill="#C2D6FF"/>
<path d="M127.33 140.33H69.83C66.61 140.33 64 137.72 64 134.5V124.17C64 120.95 66.61 118.34 69.83 118.34H127.33C130.55 118.34 133.16 120.95 133.16 124.17V134.5C133.17 137.72 130.55 140.33 127.33 140.33Z" fill="#6EC1E4"/>
<path d="M74.3418 126.65V125.871H79.7787V126.65H77.4992V133.12H76.6214V126.65H74.3418ZM81.1335 133.12V125.871H82.0114V129.099H85.8767V125.871H86.7545V133.12H85.8767V129.878H82.0114V133.12H81.1335ZM93.2693 125.871H94.1471V130.671C94.1471 131.166 94.0303 131.609 93.7967 131.998C93.5654 132.385 93.2386 132.691 92.8162 132.915C92.3938 133.137 91.8983 133.248 91.3295 133.248C90.7608 133.248 90.2653 133.137 89.8429 132.915C89.4205 132.691 89.0925 132.385 88.8589 131.998C88.6276 131.609 88.512 131.166 88.512 130.671V125.871H89.3898V130.6C89.3898 130.954 89.4677 131.269 89.6234 131.545C89.7792 131.819 90.001 132.035 90.2889 132.193C90.5791 132.349 90.926 132.426 91.3295 132.426C91.7331 132.426 92.08 132.349 92.3702 132.193C92.6605 132.035 92.8823 131.819 93.0357 131.545C93.1914 131.269 93.2693 130.954 93.2693 130.6V125.871Z" fill="white"/>
<path d="M110.611 133.12V132.483L113.004 129.864C113.284 129.557 113.516 129.29 113.697 129.064C113.879 128.835 114.014 128.62 114.101 128.42C114.191 128.217 114.235 128.004 114.235 127.782C114.235 127.528 114.174 127.307 114.051 127.12C113.931 126.934 113.766 126.79 113.556 126.689C113.346 126.587 113.11 126.536 112.848 126.536C112.569 126.536 112.326 126.594 112.119 126.71C111.913 126.823 111.754 126.982 111.641 127.188C111.53 127.393 111.475 127.634 111.475 127.91H110.639C110.639 127.485 110.737 127.112 110.933 126.791C111.129 126.47 111.395 126.22 111.733 126.041C112.073 125.862 112.454 125.772 112.876 125.772C113.301 125.772 113.677 125.862 114.005 126.041C114.333 126.22 114.591 126.462 114.777 126.767C114.963 127.071 115.057 127.41 115.057 127.782C115.057 128.049 115.008 128.31 114.912 128.565C114.817 128.817 114.652 129.099 114.416 129.411C114.182 129.72 113.858 130.097 113.443 130.543L111.814 132.285V132.341H115.184V133.12H110.611ZM119.095 133.219C118.628 133.219 118.212 133.139 117.846 132.979C117.482 132.818 117.193 132.595 116.979 132.31C116.766 132.022 116.651 131.688 116.632 131.308H117.524C117.543 131.542 117.623 131.743 117.764 131.913C117.906 132.081 118.091 132.211 118.32 132.303C118.549 132.395 118.803 132.441 119.081 132.441C119.393 132.441 119.669 132.386 119.91 132.278C120.15 132.169 120.339 132.018 120.476 131.825C120.613 131.631 120.681 131.407 120.681 131.152C120.681 130.885 120.615 130.651 120.483 130.448C120.351 130.242 120.157 130.082 119.902 129.966C119.648 129.851 119.336 129.793 118.968 129.793H118.387V129.014H118.968C119.256 129.014 119.508 128.962 119.725 128.858C119.945 128.755 120.116 128.608 120.239 128.42C120.364 128.231 120.426 128.009 120.426 127.754C120.426 127.509 120.372 127.295 120.263 127.113C120.155 126.932 120.002 126.79 119.803 126.689C119.607 126.587 119.376 126.536 119.11 126.536C118.859 126.536 118.623 126.582 118.402 126.674C118.182 126.764 118.003 126.895 117.864 127.067C117.724 127.237 117.649 127.443 117.637 127.683H116.788C116.802 127.303 116.916 126.971 117.131 126.685C117.346 126.397 117.626 126.173 117.973 126.013C118.323 125.852 118.706 125.772 119.124 125.772C119.572 125.772 119.957 125.863 120.278 126.044C120.599 126.224 120.845 126.461 121.017 126.756C121.19 127.051 121.276 127.369 121.276 127.712C121.276 128.12 121.168 128.468 120.954 128.756C120.741 129.044 120.452 129.243 120.087 129.354V129.411C120.544 129.486 120.902 129.681 121.159 129.995C121.416 130.306 121.545 130.692 121.545 131.152C121.545 131.546 121.437 131.9 121.223 132.214C121.01 132.526 120.72 132.771 120.352 132.95C119.984 133.13 119.565 133.219 119.095 133.219Z" fill="white"/>
<path d="M191.25 56.75C192.769 56.75 194 55.5188 194 54C194 52.4812 192.769 51.25 191.25 51.25C189.731 51.25 188.5 52.4812 188.5 54C188.5 55.5188 189.731 56.75 191.25 56.75Z" fill="url(#paint6_linear_1_80)"/>
<path d="M129.5 6.83C130.511 6.83 131.33 6.01068 131.33 5C131.33 3.98932 130.511 3.17 129.5 3.17C128.489 3.17 127.67 3.98932 127.67 5C127.67 6.01068 128.489 6.83 129.5 6.83Z" fill="url(#paint7_linear_1_80)"/>
<path d="M198.5 38.83C199.511 38.83 200.33 38.0107 200.33 37C200.33 35.9893 199.511 35.17 198.5 35.17C197.489 35.17 196.67 35.9893 196.67 37C196.67 38.0107 197.489 38.83 198.5 38.83Z" fill="url(#paint8_linear_1_80)"/>
<path d="M59.33 128.83C59.33 130.39 58.06 131.66 56.5 131.66C54.94 131.66 53.67 130.39 53.67 128.83C53.67 127.27 54.94 126 56.5 126C58.06 126 59.33 127.27 59.33 128.83Z" stroke="#10B7E3" stroke-miterlimit="10"/>
<path d="M123 112.83C123 113.84 122.18 114.66 121.17 114.66C120.16 114.66 119.34 113.84 119.34 112.83C119.34 111.82 120.16 111 121.17 111C122.18 111 123 111.82 123 112.83Z" stroke="#10B7E3" stroke-miterlimit="10"/>
<path d="M232.5 36.33C233.511 36.33 234.33 35.5107 234.33 34.5C234.33 33.4893 233.511 32.67 232.5 32.67C231.489 32.67 230.67 33.4893 230.67 34.5C230.67 35.5107 231.489 36.33 232.5 36.33Z" stroke="#6EC1E4" stroke-miterlimit="10"/>
<path d="M47.5 56.5H73" stroke="#6EC1E4" stroke-miterlimit="10" stroke-linecap="round" stroke-linejoin="round"/>
<path d="M140 130H149.5V120H170.5" stroke="#6EC1E4" stroke-miterlimit="10" stroke-linecap="round" stroke-linejoin="round"/>
<path d="M86.8 232.67C96.94 220.22 98 205.23 98 205.23C80.88 206.35 67.54 223.4 61.52 232.67H86.8Z" fill="#6EC1E4"/>
<path d="M71.38 232.67C68.17 219.61 51.8 162.65 9.32999 157.34C9.32999 157.34 9.95001 200.88 37.64 232.67H71.38Z" fill="#75DC7F"/>
<path d="M47.88 232.67C39.94 220.55 22.72 198.77 0.670013 197.34C0.670013 197.34 2.02001 216.56 14.95 232.67H47.88Z" fill="#6EC1E4"/>
<path d="M295.32 197.28C285.61 178.94 270.12 160.26 246.67 157.33C246.67 157.33 247.29 200.87 274.98 232.66H292.52C294.03 224.07 295.47 211.91 295.32 197.28Z" fill="#75DC7F"/>
<path d="M285.21 232.67C277.27 220.55 260.05 198.77 238 197.34C238 197.34 239.35 216.56 252.28 232.67H285.21Z" fill="#6EC1E4"/>
<path d="M109.77 232.67C104.48 226.17 103.92 218.35 103.92 218.35C112.86 218.93 119.82 227.84 122.97 232.67H109.77Z" fill="#6EC1E4"/>
<path d="M117.82 232.67C119.5 225.85 128.04 196.11 150.22 193.34C150.22 193.34 149.9 216.07 135.44 232.67H117.82Z" fill="#75DC7F"/>
<path d="M130.09 232.67C134.23 226.34 143.23 214.97 154.74 214.22C154.74 214.22 154.04 224.25 147.28 232.67H130.09Z" fill="#6EC1E4"/>
<path d="M272.33 143.33C284.663 143.33 294.66 133.333 294.66 121C294.66 108.667 284.663 98.67 272.33 98.67C259.997 98.67 250 108.667 250 121C250 133.333 259.997 143.33 272.33 143.33Z" stroke="#A4A9F0" stroke-miterlimit="10"/>
<path d="M78.33 180.67C84.4051 180.67 89.33 175.745 89.33 169.67C89.33 163.595 84.4051 158.67 78.33 158.67C72.2549 158.67 67.33 163.595 67.33 169.67C67.33 175.745 72.2549 180.67 78.33 180.67Z" stroke="#A4A9F0" stroke-miterlimit="10"/>
<path d="M172 171.33C176.048 171.33 179.33 168.048 179.33 164C179.33 159.952 176.048 156.67 172 156.67C167.952 156.67 164.67 159.952 164.67 164C164.67 168.048 167.952 171.33 172 171.33Z" stroke="#A4A9F0" stroke-miterlimit="10"/>
<defs>
<linearGradient id="paint0_linear_1_80" x1="127.239" y1="96.2321" x2="204.175" y2="96.2321" gradientUnits="userSpaceOnUse">
<stop stop-color="#FFD64B"/>
<stop offset="1" stop-color="#FFD64B"/>
</linearGradient>
<linearGradient id="paint1_linear_1_80" x1="150.639" y1="125.716" x2="164.639" y2="96.9659" gradientUnits="userSpaceOnUse">
<stop stop-color="#8182EE" stop-opacity="0"/>
<stop offset="1" stop-color="#6060E7"/>
</linearGradient>
<linearGradient id="paint2_linear_1_80" x1="149.981" y1="15.43" x2="172.36" y2="15.43" gradientUnits="userSpaceOnUse">
<stop stop-color="#10B7E3"/>
<stop offset="1" stop-color="#71D3D5"/>
</linearGradient>
<linearGradient id="paint3_linear_1_80" x1="137.029" y1="49.545" x2="172.387" y2="49.545" gradientUnits="userSpaceOnUse">
<stop stop-color="#10B7E3"/>
<stop offset="1" stop-color="#71D3D5"/>
</linearGradient>
<linearGradient id="paint4_linear_1_80" x1="71.9817" y1="132.948" x2="71.9817" y2="92.9508" gradientUnits="userSpaceOnUse">
<stop stop-color="#D8E2F6"/>
<stop offset="0.00971049" stop-color="#DAE3F6"/>
<stop offset="0.1219" stop-color="#EBF0FA"/>
<stop offset="0.2609" stop-color="#F6F9FD"/>
<stop offset="0.4566" stop-color="#FDFEFF"/>
<stop offset="1" stop-color="white"/>
</linearGradient>
<linearGradient id="paint5_linear_1_80" x1="91.1855" y1="96.9648" x2="76.5188" y2="128.631" gradientUnits="userSpaceOnUse">
<stop stop-color="#FFD64B"/>
<stop offset="1" stop-color="#FFD64B"/>
</linearGradient>
<linearGradient id="paint6_linear_1_80" x1="187.638" y1="47.2266" x2="195.638" y2="62.2267" gradientUnits="userSpaceOnUse">
<stop stop-color="#8182EE"/>
<stop offset="1" stop-color="#6060E7"/>
</linearGradient>
<linearGradient id="paint7_linear_1_80" x1="127.092" y1="0.484496" x2="132.425" y2="10.4843" gradientUnits="userSpaceOnUse">
<stop stop-color="#8182EE"/>
<stop offset="1" stop-color="#6060E7"/>
</linearGradient>
<linearGradient id="paint8_linear_1_80" x1="196.092" y1="32.4845" x2="201.425" y2="42.4843" gradientUnits="userSpaceOnUse">
<stop stop-color="#8182EE"/>
<stop offset="1" stop-color="#6060E7"/>
</linearGradient>
</defs>
</svg>
